<svg width="34" height="34" viewBox="0 0 34 34" fill="none" xmlns="http://www.w3.org/2000/svg">
<g clip-path="url(#clip0_1092_241)">
<path d="M21.9081 0.196366C21.7522 0.0321657 21.5385 -0.0664062 21.317 -0.0664062H8.05358C5.60614 -0.0664062 3.58594 1.94576 3.58594 4.39294V29.4741C3.58594 31.9215 5.60614 33.9337 8.05358 33.9337H26.0554C28.5029 33.9337 30.5231 31.9215 30.5231 29.4741V9.55863C30.5231 9.34514 30.4245 9.13995 30.2849 8.9838L21.9081 0.196366ZM22.1463 2.83265L27.7555 8.72102H24.1091C23.0251 8.72102 22.1463 7.85048 22.1463 6.76645V2.83265ZM26.0554 32.2911H8.05358C6.51793 32.2911 5.22846 31.0183 5.22846 29.4741V4.39294C5.22846 2.85729 6.50963 1.57611 8.05358 1.57611H20.5037V6.76645C20.5037 8.76201 22.1136 10.3635 24.1091 10.3635H28.8805V29.4741C28.8805 31.0183 27.5994 32.2911 26.0554 32.2911Z" fill="#195579"/>
<path d="M23.8137 26.6245H10.2959C9.84425 26.6245 9.47461 26.9939 9.47461 27.4458C9.47461 27.8974 9.84425 28.267 10.2959 28.267H23.822C24.2736 28.267 24.6433 27.8974 24.6433 27.4458C24.6433 26.9939 24.2736 26.6245 23.8137 26.6245Z" fill="#195579"/>
<path d="M12.8497 17.7876L16.2333 14.1493V23.1175C16.2333 23.5691 16.6029 23.9388 17.0545 23.9388C17.5064 23.9388 17.8758 23.5691 17.8758 23.1175V14.1493L21.2594 17.7876C21.4236 17.9599 21.6374 18.0504 21.8589 18.0504C22.056 18.0504 22.2615 17.9765 22.4174 17.8286C22.746 17.5166 22.7707 16.999 22.4586 16.6706L17.646 11.505C17.4898 11.3408 17.2763 11.2422 17.0465 11.2422C16.8164 11.2422 16.6029 11.3408 16.447 11.505L11.6344 16.6706C11.3223 16.999 11.347 17.5246 11.6754 17.8286C12.0204 18.1407 12.5376 18.116 12.8497 17.7876Z" fill="#195579"/>
</g>
<defs>
<clipPath id="clip0_1092_241">
<rect width="34" height="34" fill="white"/>
</clipPath>
</defs>
</svg>
