<?xml version="1.0" encoding="UTF-8"?>
<!DOCTYPE svg PUBLIC "-//W3C//DTD SVG 1.1//EN" "http://www.w3.org/Graphics/SVG/1.1/DTD/svg11.dtd">
<!-- Creator: CorelDRAW -->
<svg xmlns="http://www.w3.org/2000/svg" xml:space="preserve" width="220.133mm" height="42.5111mm" version="1.1" style="shape-rendering:geometricPrecision; text-rendering:geometricPrecision; image-rendering:optimizeQuality; fill-rule:evenodd; clip-rule:evenodd"
viewBox="0 0 22013.32 4251.11"
 xmlns:xlink="http://www.w3.org/1999/xlink"
 xmlns:xodm="http://www.corel.com/coreldraw/odm/2003">
 <defs>
  <style type="text/css">
   <![CDATA[
    .fil0 {fill:none}
    .fil3 {fill:#373435}
    .fil1 {fill:#00283D}
    .fil2 {fill:url(#id1)}
   ]]>
  </style>
   <clipPath id="id0">
    <rect x="224.44" y="544.75" width="4146.87" height="3706.36"/>
   </clipPath>
  <linearGradient id="id1" gradientUnits="userSpaceOnUse" x1="17170.39" y1="2116.67" x2="21544.27" y2="2116.67">
   <stop offset="0" style="stop-opacity:1; stop-color:#00283D"/>
   <stop offset="1" style="stop-opacity:1; stop-color:#24EFA1"/>
  </linearGradient>
 </defs>
 <g id="Camada_x0020_1">
  <metadata id="CorelCorpID_0Corel-Layer"/>
  <g style="clip-path:url(#id0)">
   <image x="224.44" y="544.76" width="4146.86" height="3706.35" xlink:href="azul_verde 2_Images\azul_verde 2_ImgID1.png"/>
  </g>
  <rect class="fil0" x="-0" y="-0" width="22013.32" height="4233.33"/>
  <g id="_2072917448032">
   <g>
    <path class="fil1" d="M4621.43 3509.27c0,12.1 3.65,15.74 15.75,15.74l456.79 0 0 -1884.66 306.73 843c7.57,19.52 16.94,37.63 18.79,59.96l509.29 0 168.78 -471.72c13.85,-37.08 28.52,-75.6 41.85,-115.64 13.07,-39.24 29.1,-77.23 43.32,-119.42l87.32 -232.92 0 1811.16c0,21.05 0.17,42.12 -0.18,63.18 -0.38,23.38 -6.21,47.06 15.93,47.06l456.79 0 0 -2430.63 -745.56 0c-17.72,0 -20.91,27.95 -27.8,45.71l-58.13 162.34c-24.95,73.99 -53.25,141.35 -78.84,215.17 -13.31,38.36 -26.27,73.06 -39.23,107.77 -14.02,37.5 -24.24,70.5 -39.05,107.94 -9.6,24.28 -64.8,198.58 -82.47,211.53 -2.33,-28.08 -244.17,-676.31 -272.26,-751.47 -7.21,-19.31 -12.11,-34.3 -19.52,-53.99 -6.84,-18.14 -9.08,-45 -28.49,-45l-729.81 0 0 2414.89z"/>
    <path class="fil1" d="M15752.25 2874.05l0 -1133.95c0,-108.1 57.02,-173.25 168.02,-173.25l472.52 0c49.76,0 90.91,14.38 118.51,39.02 29.92,26.7 44.27,70.37 44.27,113.23l0 1181.19c0,42.5 -12.44,80.93 -43.4,108.86 -31.19,28.16 -70.2,38.14 -114.13,38.14 -89.44,0 -496.34,10.24 -555.38,-11.66 -35.18,-13.05 -71.29,-53.22 -79.74,-88.26 -5.34,-22.14 -10.67,-47.23 -10.67,-73.32zm-441.04 -1112.94l0 1091.93c0,51.33 6.75,100.14 13.45,149.31 5.05,37.04 4.29,38.41 14.77,69.22 36.13,106.22 24.95,82.59 79.83,172.18 39.98,65.29 96.8,128.22 163.3,167.45 134.97,79.6 22.82,23.4 169.69,82.32 112.38,45.08 489.35,31.49 614.29,31.49 50.66,0 175.55,-13.18 218.61,-28.14 26.5,-9.2 95.96,-33.04 116.52,-46.26 18.02,-11.6 32.95,-20.3 51.33,-32.66 80.96,-54.41 60.87,-43.09 132.13,-114.62 52.59,-52.81 123.78,-202.82 133.46,-286.55 5.62,-48.61 14.76,-96.99 14.76,-153.23l0 -1112.95c0,-119.27 -16.05,-172.24 -49.19,-271.05 -16.04,-47.82 -57.66,-112.82 -87.24,-154.27l-80.05 -82.7c-20.93,-20.84 -122.64,-83.59 -147.92,-93.58 -21.18,-8.38 -36.82,-12.76 -57.85,-20.9 -19.96,-7.73 -41.88,-15.79 -63.7,-20.29 -107.11,-22.11 -491.37,-13.43 -600.89,-13.43 -115.57,0 -172.3,16.69 -270.09,55.43 -28.85,11.44 -128.48,72.17 -148.78,92.73l-39.2 44.78c-13.32,13.19 -27.46,25.55 -39.23,39.53 -31.9,37.8 -72.41,110.9 -88.72,158.04 -22.64,65.43 -26.13,54.71 -35.05,127.69 -5.59,45.71 -14.23,94.19 -14.23,148.53z"/>
    <path class="fil1" d="M6910.6 3525.01l509.29 0 630.04 -1711.41c13.43,15.43 78.17,198.8 88.51,226.49 10.22,27.38 17.69,50.05 27.8,77.21l313.47 846.75c5.43,14.54 7.48,23.71 13.48,39 6.75,17.14 11.83,23.75 13.53,44.24l-456.79 0 0 461.98c0,12.1 3.66,15.74 15.75,15.74l1128.84 0c-0.66,-29.33 -41.61,-122.05 -51.86,-152.9 -17.38,-52.37 -37.43,-100.31 -56.43,-153.54l-223.24 -606.26c-18.26,-48.9 -37.36,-103.44 -57,-152.99 -20.12,-50.73 -35.58,-101.46 -56.21,-153.78l-435.57 -1181.4c-5.92,-16.08 -6.36,-29.76 -22.76,-29.76l-477.78 0c-17.55,0 -15.7,12.16 -20.68,26.58l-42.33 115.16c-20.12,50.72 -35.57,101.46 -56.21,153.79l-280.42 759.06c-17.96,49.55 -40.09,104.07 -56.49,153.51 -43.92,132.26 -117.65,316.63 -167.99,456.73 -9.45,26.27 -19.43,48.63 -28.95,76.07 -21.6,62.28 -247.34,657.79 -250,689.73z"/>
    <path class="fil1" d="M11814.46 1740.1l0 1139.19c0,59.06 10.93,158.72 31.5,210 41.6,103.7 14.01,63.46 80.89,165.86 33.96,52.03 28.97,41.13 75.32,87.42 14.62,14.63 24.87,26.08 38.45,40.3 0.75,0.78 1.81,1.94 2.57,2.67l122.39 77.13c51.85,21 100.38,41.5 157.2,47.55 46.68,4.96 95.82,14.79 147.98,14.79l845.31 0c12.1,0 15.75,-3.64 15.75,-15.74l0 -461.98 -887.32 0c-23.69,0 -50.22,-4.47 -67.78,-10.97 -61.45,-22.77 -89.73,-88.22 -89.73,-157.03l0 -320.23c0,-12.1 3.66,-15.75 15.76,-15.75l724.55 0 0 -509.23 -740.31 0c0,-85.27 -8.03,-298.74 10.78,-367.19 4.04,-14.71 5.44,-14.74 14.27,-27.73 6.04,-8.87 11.19,-18.08 16.87,-25.15 23.12,-28.84 73.51,-47.16 126.1,-47.16l876.81 0 0 -472.47 -882.07 0c-33.26,0 -46.34,2.72 -73.65,5.11 -119.31,10.38 -82.89,11.01 -193.59,47.92 -25.41,8.46 -29.19,14.21 -51.36,27.4 -87.24,51.85 -153.63,105.47 -207.46,191.54 -41.35,66.11 -83.15,143.19 -94.49,225.76 -5.98,43.64 -14.74,98.99 -14.74,147.99z"/>
    <path class="fil1" d="M9661.8 3525.01l477.79 0c22.16,0 49.01,-100.68 64.54,-140.2 114.02,-290.32 221.61,-623.24 336.03,-913.45 93.55,-237.26 185.46,-522.45 280.45,-764.28 20.17,-51.34 35.58,-98.55 54.79,-149.96l112.73 -307.26c11.32,-32.65 52.34,-129.23 54.54,-155.48l-504.05 0c-1.92,23.05 -10.16,34.67 -17.71,55.79l-338.7 921.27c-13.27,36.57 -25.18,69.83 -39.6,107.4l-199.25 541c-7.55,21.18 -12.78,33.04 -19.68,53.81 -6.66,20.07 -15.21,36.33 -20.36,58.4 -3.89,-5.62 -0.66,0.65 -5.52,-10.22 -37.6,-83.67 -113.9,-315.32 -155.71,-421.79 -28.2,-71.82 -53.49,-144.75 -79.53,-214.47 -13.85,-37.1 -26.55,-70.05 -39.53,-107.47 -85.64,-246.96 -190.7,-515.12 -280.88,-763.84l-79.36 -219.88 -504.05 0 221.31 608.18c75.02,201.38 150.95,407.9 224.36,610.37l111.52 303.23c61.45,185.11 163.35,426.16 224.47,610.27 17.56,52.91 38.56,100.4 56.46,153.52 7.98,23.63 44.4,145.06 64.94,145.06z"/>
    <path class="fil1" d="M13478.83 2879.29c0,118.9 17.98,172.59 50.57,269.67 17.05,50.82 31.39,64.65 56.66,106.09 7.8,12.82 22.57,37.07 31.61,47.14 7.91,8.8 12.91,10.5 22.63,19.37 37.94,34.62 53.99,62.28 105.27,94.24 74.2,46.23 78.63,49.97 163.13,78.36 63.46,21.33 147.44,30.85 215.93,30.85l1039.58 0 0 -477.72 -1060.59 0c-107.85,0 -152.25,-66.12 -152.25,-162.75l0 -1790.16 -472.54 0 0 1784.91z"/>
    <path class="fil1" d="M11194.91 3525.01l456.79 0c12.09,0 15.74,-3.64 15.74,-15.74l0 -2414.89 -472.53 0 0 2430.63z"/>
   </g>
   <path class="fil2" d="M19368.55 1102.64l525.16 0 0 937.84 1125.39 0 0 -1613.07 525.17 0 0 3076.07 -525.17 0 0 -1012.84 -1125.39 0 0 1315.26 -525.16 0 0 -1315.26 0 -450.16 0 -937.84zm-1728.88 1227.66l671.79 1173.18 -426.44 0 -691.89 -1173.18 446.54 0zm-469.28 -809.09l366.31 -418.57 771.24 0c179.89,0 335.05,32.47 465.98,96.82 130.93,64.37 231.61,156.81 303.12,276.74 70.97,119.93 106.18,261.86 106.18,426.36 0,166.13 -36.31,307.53 -108.92,423.61 -72.63,116.08 -175.51,204.12 -309.19,264.62 -32.76,14.83 -67.02,27.84 -102.75,39.04l680.31 1176.06 -426.43 0 -665.68 -1124.32 -3.98 0 -41.63 -77.01 -117.35 -198.07 10.26 0 -45.55 -84.27 129.44 0c331.73,0 345.68,-41.74 404.56,-64.73 59.35,-23.18 118.07,-125.65 148.51,-172.83 30.6,-47.43 45.66,-108.37 45.66,-182.1 0,-143.82 -88.58,-292.18 -226.54,-340.89 -137.55,-48.54 -284.53,-40.46 -371.44,-40.46 -337.37,0 -674.74,0 -1012.11,0z"/>
  </g>
  <path class="fil3" d="M21773.89 427.41c87.53,0 158.49,70.96 158.49,158.49 0,87.54 -70.96,158.5 -158.49,158.5 -87.54,0 -158.5,-70.96 -158.5,-158.5 0,-87.53 70.96,-158.49 158.5,-158.49zm-66.71 239.78l0 -162.57 69.14 0c17.37,0 30,1.48 37.88,4.39 7.9,2.92 14.19,8.1 18.92,15.56 4.73,7.49 7.11,16 7.11,25.61 0,12.23 -3.56,22.29 -10.71,30.24 -7.15,7.95 -17.82,12.94 -32.05,15.02 7.08,4.13 12.9,8.67 17.48,13.62 4.62,4.96 10.82,13.78 18.62,26.42l19.83 31.71 -39.24 0 -23.54 -35.5c-8.44,-12.6 -14.23,-20.54 -17.37,-23.84 -3.1,-3.25 -6.39,-5.52 -9.88,-6.73 -3.52,-1.21 -9.04,-1.82 -16.61,-1.82l-6.66 0 0 67.89 -32.92 0zm32.92 -93.77l24.3 0c15.74,0 25.54,-0.68 29.47,-2.01 3.9,-1.32 7,-3.63 9.2,-6.88 2.23,-3.26 3.33,-7.35 3.33,-12.23 0,-5.48 -1.48,-9.87 -4.39,-13.28 -2.91,-3.37 -7.04,-5.49 -12.34,-6.36 -2.68,-0.38 -10.67,-0.56 -23.95,-0.56l-25.62 0 0 41.32zm33.79 -115.06c70.44,0 127.54,57.1 127.54,127.54 0,70.45 -57.1,127.55 -127.54,127.55 -70.45,0 -127.55,-57.1 -127.55,-127.55 0,-70.44 57.1,-127.54 127.55,-127.54z"/>
 </g>
</svg>
