<?xml version="1.0" encoding="utf-8"?>
<!-- Generator: Adobe Illustrator 27.5.0, SVG Export Plug-In . SVG Version: 6.00 Build 0)  -->
<svg version="1.1" xmlns="http://www.w3.org/2000/svg" xmlns:xlink="http://www.w3.org/1999/xlink" x="0px" y="0px"
	 viewBox="0 0 1122 1122" style="enable-background:new 0 0 1122 1122;" xml:space="preserve">
<g id="shadow">
	<rect style="fill:#FFFFFF;" width="1122" height="1122"/>
</g>
<g id="Layer_1">
	<g>
		<g>
			<g>
				<g>
					<g>
						<g>
							<rect style="fill:#FFFFFF;" width="1122" height="904.47"/>
						</g>
					</g>
					<g>
						<g>
							<rect x="1.734" y="0.418" style="fill:#F1F1F1;" width="1117.798" height="57.71"/>
						</g>
					</g>
				</g>
				<g>
					<g>
						<g>
							<rect x="34.682" y="105.257" style="fill:#84A599;" width="143.997" height="50.604"/>
						</g>
					</g>
					<g>
						<g>
							<g>
								<rect x="274.221" y="105.257" style="fill:#EAEAEA;" width="143.997" height="37.163"/>
							</g>
						</g>
						<g>
							<g>
								<rect x="439.537" y="105.257" style="fill:#EAEAEA;" width="143.997" height="37.163"/>
							</g>
						</g>
						<g>
							<g>
								<rect x="604.854" y="105.257" style="fill:#EAEAEA;" width="143.997" height="37.163"/>
							</g>
						</g>
					</g>
					<g>
						<g>
							<rect x="274.221" y="155.861" style="fill:#EAEAEA;" width="778.809" height="6.749"/>
						</g>
					</g>
					<g>
						<g>
							<path style="fill:#EAEAEA;" d="M316.625,240.439h-42.903v-42.903h42.903V240.439z M274.721,239.439h40.903v-40.903h-40.903
								V239.439z"/>
						</g>
					</g>
					<g>
						<g>
							<path style="fill:#EAEAEA;" d="M316.625,317.767h-42.903v-42.903h42.903V317.767z M274.721,316.767h40.903v-40.903h-40.903
								V316.767z"/>
						</g>
					</g>
					<g>
						<g>
							<path style="fill:#EAEAEA;" d="M316.625,395.095h-42.903v-42.903h42.903V395.095z M274.721,394.095h40.903v-40.903h-40.903
								V394.095z"/>
						</g>
					</g>
					<g>
						<g>
							<path style="fill:#EAEAEA;" d="M316.625,472.423h-42.903V429.52h42.903V472.423z M274.721,471.423h40.903V430.52h-40.903
								V471.423z"/>
						</g>
					</g>
					<g>
						<g>
							<path style="fill:#EAEAEA;" d="M316.625,549.752h-42.903v-42.903h42.903V549.752z M274.721,548.752h40.903v-40.903h-40.903
								V548.752z"/>
						</g>
					</g>
					<g>
						<g>
							<path style="fill:#EAEAEA;" d="M316.625,627.08h-42.903v-42.903h42.903V627.08z M274.721,626.08h40.903v-40.903h-40.903
								V626.08z"/>
						</g>
					</g>
					<g>
						<g>
							<rect x="346.22" y="211.53" style="fill:#EAEAEA;" width="339.067" height="12.517"/>
						</g>
					</g>
					<g>
						<g>
							<rect x="342.003" y="597.193" style="fill:#EAEAEA;" width="614.58" height="8.434"/>
						</g>
					</g>
					<g style="opacity:0.38;">
						<g>
							<rect x="346.22" y="287.88" style="fill:#EAEAEA;" width="406.101" height="13.055"/>
						</g>
					</g>
					<g>
						<g>
							<rect x="352.967" y="360.54" style="fill:#EAEAEA;" width="310.659" height="5.623"/>
						</g>
					</g>
					<g>
						<g>
							<rect x="349.594" y="427.208" style="fill:#EAEAEA;" width="310.659" height="5.623"/>
						</g>
					</g>
					<g>
						<g>
							<rect x="346.22" y="507.348" style="fill:#EAEAEA;" width="310.659" height="5.623"/>
						</g>
					</g>
					<g style="opacity:0.38;">
						<g>
							<rect x="34.682" y="188.915" style="fill:#EAEAEA;" width="112.179" height="9.12"/>
						</g>
					</g>
					<g style="opacity:0.38;">
						<g>
							<rect x="34.682" y="231.089" style="fill:#EAEAEA;" width="112.179" height="9.12"/>
						</g>
					</g>
					<g style="opacity:0.38;">
						<g>
							<rect x="34.682" y="273.263" style="fill:#EAEAEA;" width="112.179" height="9.12"/>
						</g>
					</g>
				</g>
				<g>
					<g>
						<rect x="529.529" y="110.879" style="fill:#F2D042;" width="50.607" height="4.498"/>
					</g>
				</g>
				<g>
					<g>
						<rect x="361.314" y="110.879" style="fill:#29ABE2;" width="50.607" height="4.498"/>
					</g>
				</g>
				<g>
					<g>
						<rect x="143.188" y="14.18" style="fill:#FFFFFF;" width="351.284" height="28.252"/>
					</g>
				</g>
			</g>
			<g>
				<g>
					<polygon style="fill:#CCCCCC;" points="465.684,25.529 483.397,25.529 474.54,33.018 					"/>
				</g>
			</g>
			<g>
				<g>
					<g>
						<rect x="452.189" y="16.242" style="fill:#CCCCCC;" width="1.687" height="23.617"/>
					</g>
				</g>
			</g>
		</g>
		<g>
			<g>
				
					<ellipse transform="matrix(0.1613 -0.9869 0.9869 0.1613 15.5957 80.0089)" style="fill:#E6E6E6;" cx="54.869" cy="30.829" rx="18.872" ry="18.872"/>
			</g>
		</g>
	</g>
	<g>
		<g>
			<g>
				<g>
					<g>
						<g>
							<g>
								<path style="fill:#EAEAEA;" d="M315.625,700.129h-42.903v-42.903h42.903V700.129z M273.721,699.129h40.903v-40.903h-40.903
									V699.129z"/>
							</g>
						</g>
						<g>
							<g>
								<path style="fill:#EAEAEA;" d="M315.625,777.457h-42.903v-42.903h42.903V777.457z M273.721,776.457h40.903v-40.903h-40.903
									V776.457z"/>
							</g>
						</g>
						<g>
							<g>
								<path style="fill:#EAEAEA;" d="M315.625,854.785h-42.903v-42.903h42.903V854.785z M273.721,853.785h40.903v-40.903h-40.903
									V853.785z"/>
							</g>
						</g>
						<g>
							<g>
								<rect x="345.22" y="671.221" style="fill:#EAEAEA;" width="339.067" height="12.517"/>
							</g>
						</g>
						<g style="opacity:0.38;">
							<g>
								<rect x="345.22" y="747.571" style="fill:#EAEAEA;" width="406.101" height="13.055"/>
							</g>
						</g>
						<g>
							<g>
								<rect x="351.967" y="820.23" style="fill:#EAEAEA;" width="310.659" height="5.623"/>
							</g>
						</g>
					</g>
				</g>
			</g>
		</g>
	</g>
	<g>
		<g>
			<g>
				<g>
					<polygon style="fill:#363636;" points="129.671,1015.729 128.286,1027.215 149.872,1041.472 162.743,1031.372 152.643,1018.5 
						133.486,1010.425 					"/>
				</g>
			</g>
			<g>
				<g>
					<polygon style="fill:#827770;" points="158.102,706.33 143.446,737.483 163.03,856.739 133.108,1012.388 154.078,1019.541 
						226.942,834.958 232.072,778.307 225.174,707.257 					"/>
				</g>
			</g>
		</g>
		<g>
			<g>
				<g>
					<polygon style="fill:#827770;" points="278.526,716.299 292.962,824.116 265.135,1014.512 243.738,1014.512 230.224,838.831 
						216.091,722.01 					"/>
				</g>
			</g>
			<g>
				<g>
					<polygon style="fill:#363636;" points="243.861,1011.966 243.861,1023.535 267,1035.104 278.569,1023.535 267,1011.966 					
						"/>
				</g>
			</g>
		</g>
		<g>
			<g>
				<path style="fill:#ADCAD8;" d="M131.779,755.439c-2.848,17.282-8.26,32.904-18.957,43.887
					c25.165-3.727,49.037-15.639,73.722-22.8c38.131-11.061,78.373-10.598,116.334,1.339c-3.482-39.497-9.786-78.51-16.083-117.461
					c-6.215-38.448-12.431-76.895-18.646-115.342c-1.049-6.486-2.138-13.108-4.816-18.818
					c-15.431-32.896-51.327-29.677-75.712-20.073c-18.154,7.15-22.453,21.383-29.892,41.781
					c-5.318,14.582-12.525,53.728-14.559,69.4c-2.463,18.983-4.742,38.004-6.515,57.095
					C134.459,698.087,136.178,728.744,131.779,755.439z"/>
			</g>
		</g>
		<g>
			<g>
				<g>
					<g>
						<g>
							<g>
								<path style="fill:#EACDB0;" d="M206.275,507.062c0.217,0.511,0.522,1.007,0.943,1.487c1.662,1.894,4.069,3.074,6.504,3.603
									c3.21,0.698,6.545,0.398,9.808,0.016c4.407-0.516,4.438-3.072,5.352-6.973c0.998-4.254,1.5-8.606,2.021-12.938
									c6.311-0.517,13.805-1.897,16.538-8.346c0.861-2.031,1.093-4.305,1.313-6.53c0.911-9.198,1.821-18.395,2.732-27.593
									c0.315-3.181,0.623-6.461-0.173-9.513c-1.398-5.355-5.874-8.882-10.364-11.255c-11.457-6.055-25.36-7.132-37.002-1.086
									c-3.098,1.609-6.082,3.771-8.068,6.895c-3.063,4.817-3.309,11.089-3.44,16.96c-0.122,5.419-0.243,10.838-0.365,16.258
									c-0.14,6.233,0.117,13.446,4.528,17.149c2.342,1.966,5.544,2.582,7.494,5.028c2.442,3.063,1.959,7.36,1.807,11.011
									C205.816,503.323,205.517,505.282,206.275,507.062z"/>
							</g>
						</g>
					</g>
					<g>
						<g>
							<path style="fill:#534741;" d="M241.644,438.92c0.256,0.528,0.463,1.071,0.613,1.631c0.785,2.934-0.118,6.118,0.643,9.058
								c1.207,4.662,6.321,7.781,6.779,12.575c0.375,3.921-2.537,7.412-3.044,11.318c-0.553,4.267,1.898,8.521,1.167,12.719
								c-0.635,3.647-3.338,8.642-5.744,11.428c0.745-0.863,6.872-0.095,8.537-0.954c2.552-1.317,2.899-2.237,3.81-4.732
								c0.905-2.477,0.525-5.01,1.837-7.52c1.61-3.079,4.615-5.207,5.853-8.525c1.689-4.528-0.42-9.585,0.12-14.387
								c0.817-7.269,7.613-13.682,5.826-20.775c-1.048-4.161-4.807-7.044-6.763-10.864c-1.485-2.9-1.87-6.221-2.82-9.337
								c-0.95-3.117-2.741-6.296-5.792-7.441c-1.695-0.636-3.573-0.561-5.324-1.019c-3.027-0.792-5.424-3.094-8.308-4.307
								c-4.126-1.736-11.896,2.002-14.623,5.409c-2.707,3.381-1.689,6.495,0.589,9.822
								C228.796,428.558,238.63,432.714,241.644,438.92z"/>
						</g>
					</g>
				</g>
				<g>
					<g>
						<path style="fill:#534741;" d="M182.837,413.559c-2.669,1.677-5.895,2.794-8.367,4.8c-4.818,3.911-6.165,10.624-6.774,16.8
							c-0.543,5.499-3.306,10.22-3.124,16.005c0.122,3.885,1.48,7.903,4.454,10.406c3.703,3.117,9.805,4.025,11.224,8.653
							c1.541,5.027-3.97,10.821-1.201,15.291c1.528,2.466,4.828,3.05,7.142,4.8c2.581,1.952,3.746,5.191,5.2,8.083
							c1.454,2.892,3.737,5.848,6.96,6.15c0.485-4.899,0.911-8.778-0.862-13.419c-1.033-2.703-4.281-7.787-1.314-10.42
							c1.912-2.228,6.08-2.697,6.397-5.616c0.149-1.371-0.726-2.61-1.399-3.813c-2.608-4.656-2.479-10.599-0.137-15.394
							c2.342-4.795,6.718-8.445,11.676-10.419c5.81-2.314,5.005-3.75,7.024-9.008c1.858-4.838,4.749-5.796,9.332-7.278
							c4.115-1.33,5.473-2.246,7.218-5.882c1.277-2.66,2.843-5.844,1.498-9.013c-1.069-2.518-3.184-4.417-5.235-6.228
							c-4.284-3.784-9.116-7.785-14.831-7.786c-3.174,0-6.252,1.269-9.426,1.22c-2.117-0.033-4.18-0.651-6.285-0.873
							c-3.59-0.38-7.464,0.44-10.532,2.372c-3.095,1.949-3.175,4.217-5.029,7.165C185.538,411.599,184.268,412.659,182.837,413.559z
							"/>
					</g>
				</g>
				<g>
					<g>
						<path style="fill:#534741;" d="M197.025,394.294c0.8-3.38,0.766-7.863-2.417-9.253c-1.744-0.762-3.799-0.213-5.632-0.726
							c-3.906-1.092-4.91-5.99-6.738-9.61c-0.274-0.542-0.606-1.095-1.141-1.382c-0.766-0.41-1.696-0.162-2.563-0.119
							c-3.979,0.197-6.697-3.913-10.31-5.592c-4.472-2.079-10.465,0.379-12.191,4.999c-0.709,1.898-0.76,3.989-1.435,5.9
							c-2.735,7.741-14.542,10.267-15.425,18.429c-0.596,5.516,4.433,11.205,1.96,16.171c-1.581,3.176-5.953,5.103-5.725,8.644
							c0.147,2.278,2.438,3.986,4.717,4.119c2.279,0.132,4.46-0.966,6.283-2.339c2.893-2.18,5.164-5.082,7.938-7.412
							c2.774-2.33,6.379-4.121,9.933-3.415c3.441,0.684,6.389,3.615,9.882,3.285c2.794-0.264,5.021-2.578,7.783-3.077
							c2.584-0.466,5.15,0.721,7.753,1.067c2.603,0.346,5.912-0.782,6.17-3.396c0.063-0.633-0.067-1.301,0.175-1.889
							c0.68-1.648,3.556-1.343,4.225-2.995c-1.213-2.203-3.192-1.587-3.972-4.406C195.692,399.115,196.522,396.417,197.025,394.294z
							"/>
					</g>
				</g>
			</g>
		</g>
	</g>
	<g>
		<g>
			<g>
				<g>
					<g>
						<g>
							<path style="fill:#E5D1BD;" d="M1040.195,991.312c-2.731,3.21-5.461,6.42-8.192,9.63
								c-10.475-8.081-20.439-17.359-29.595-27.56c5.483-2.661,9.304-10.336,16.43-4.412
								C1021.144,970.888,1039.655,991.946,1040.195,991.312z"/>
						</g>
					</g>
					<g>
						<g>
							<path style="fill:#4D4D4D;" d="M1025.585,997.005c-1.323,1.675-1.956,4.027-1.733,6.44c0.13,1.401,0.535,2.834,0.415,4.194
								c-0.118,1.335-0.73,2.466-1.33,3.557c-3.159,5.744-14.187,20.785,1.167,21.074c13.944,0.262,22.876-22.849,27.614-34.31
								c0.312-0.754,0.623-1.561,0.503-2.447c-0.128-0.947-0.724-1.803-1.307-2.586c-3.246-4.36-8.11-11.086-12.725-6.505
								c-1.969,1.954-2.593,5.286-4.823,7.238C1031.539,995.26,1026.776,995.498,1025.585,997.005z"/>
						</g>
					</g>
				</g>
				<g>
					<g>
						<path style="fill:#8C9193;" d="M995.6,737.761c2.666,18.145-0.678,35.91-2.468,53.69c-2.011,19.972-0.044,36.959,3.93,56.808
							c4.347,21.715,9.099,43.382,15.177,64.693c6.333,22.204,15.693,39.845,26.349,60.011c0.904,1.711,1.838,3.547,1.769,5.475
							c-0.247,6.895-30.234,25.894-32.178,21.932c-16.498-33.662-42.975-67.471-57.206-102.259
							c-24.774-60.563-46.055-122.685-63.65-185.856c-2.512-9.018-4.817-19.356-0.345-27.01c3.429-5.87,9.946-8.45,16.114-10.39
							c16.503-5.189,46.283-16.514,62.803-5.514C983.952,681.363,992.613,717.431,995.6,737.761z"/>
					</g>
				</g>
			</g>
			<g>
				<g>
					<g>
						<g>
							<path style="fill:#E5D1BD;" d="M905.684,1029.014c-4.045-0.081-8.089-0.162-12.134-0.243
								c-1.458-13.799-1.748-27.976-0.86-42.112c5.513,2.666,13.367,0.674,14.064,10.342
								C906.98,1000.131,904.885,1028.998,905.684,1029.014z"/>
						</g>
					</g>
					<g>
						<g>
							<path style="fill:#4D4D4D;" d="M891.958,1020.988c-2.042,0.04-4.088,1.085-5.602,2.86c-0.879,1.031-1.594,2.306-2.612,3.108
								c-0.999,0.788-2.19,1.042-3.344,1.279c-6.079,1.25-23.845,2.296-13.742,14.879c9.175,11.427,31.097,3.352,42.175-0.404
								c0.729-0.247,1.494-0.53,2.024-1.213c0.567-0.73,0.757-1.777,0.906-2.766c0.827-5.504,2.2-13.876-4.055-14.572
								c-2.668-0.297-5.383,1.403-8.225,0.895C897.155,1024.639,893.795,1020.952,891.958,1020.988z"/>
						</g>
					</g>
				</g>
				<g>
					<g>
						<path style="fill:#8C9193;" d="M967.116,761.354c-4.902,26.482-20.852,46.931-28.266,72.689
							c-14.333,49.793-17.362,106.851-24.345,158.52c-0.536,3.963-0.473,18.182-0.473,18.182s-19.005,3.818-30.487,1.489
							c-12.582-102.937-15.826-207.446-9.667-311.372c0.558-9.423,1.737-20.033,8.4-25.823c5.11-4.44,12.05-4.716,18.457-4.499
							c17.142,0.581,48.71-0.237,60.64,15.758C974.414,703.782,970.883,741.006,967.116,761.354z"/>
					</g>
				</g>
			</g>
		</g>
		<g>
			<g>
				<g>
					<g>
						<g>
							<path style="fill:#EACDB0;" d="M897.336,536.341c6.374-0.823,12.749-1.647,19.123-2.47c-0.09-5.125-0.59-10.243-1.494-15.288
								c5.273-2.031,11.347-5.024,12.11-10.623c0.24-1.764-0.116-3.548-0.471-5.292c-1.467-7.21-2.935-14.42-4.402-21.631
								c-0.508-2.494-1.045-5.06-2.472-7.167c-2.504-3.698-7.195-5.209-11.615-5.842c-11.281-1.615-23.438,1.179-31.921,8.787
								c-2.258,2.025-4.282,4.439-5.218,7.323c-1.444,4.448-0.122,9.267,1.199,13.753c1.219,4.14,2.439,8.281,3.659,12.421
								c1.403,4.762,3.384,10.164,8.062,11.827c2.484,0.883,5.374,0.518,7.639,1.865
								C895.527,526.382,895.172,532.227,897.336,536.341z"/>
						</g>
					</g>
					<g>
						<g>
							<path style="fill:#3A3029;" d="M830.419,465.985c-1.156-1.777-2.395-3.488-3.773-5.087
								c-2.983-3.462-6.619-6.398-9.052-10.268s-3.406-9.184-0.735-12.892c1.724-2.393,4.599-3.65,7.403-4.566
								c9.238-3.019,19.29-3.503,28.776-1.386c9.035,2.017,17.172,5.558,26.099,1.919c8.387-3.419,14.552-2.31,23.51,0.589
								c9.694,3.138,22.595,3.563,31.421,8.138c3.686,1.91,6.673,4.977,9.031,8.394c8.171,11.836,8.708,28.474,1.317,40.811
								c-1.658,2.768-3.665,5.313-5.781,7.749c-4.38,5.042-9.613,11.264-15.784,13.268c-0.314-5.565,4.238-23.275-0.174-27.713
								c-7.002-7.042-22.274-4.06-30.641-2.027c-9.127,2.218-17.12,8.965-26.184,10.624c-6.522,1.194-14.98-1.771-20.652-4.992
								C838.201,484.569,834.638,472.472,830.419,465.985z"/>
						</g>
					</g>
				</g>
			</g>
			<g>
				<g>
					<path style="fill:#A16652;" d="M937.804,528.639c12.852,6.809,22.804,19.166,29.393,32.174
						c26.375,52.071,39.218,109.764,51.611,166.802c4.021,18.508,8.784,38.359,23.063,50.802
						c-12.643,2.351-25.917,4.103-38.174,0.213c-8.01-2.542-15.079-7.346-22.657-10.979c-18.979-9.099-40.877-10.643-61.761-8.023
						c-20.884,2.62-41.042,9.183-61.052,15.712c-1.986-15.484-2.518-29.173-1.653-44.711c2.444-43.95,20.033-85.757,20.152-129.975
						c0.042-15.588-2.116-31.417,1.338-46.618c4.313-18.982,20.357-31.492,39.833-30.81
						C925.137,523.48,931.788,525.451,937.804,528.639z"/>
				</g>
			</g>
		</g>
	</g>
	<g>
		<g style="opacity:0.15;">
			<g>
				<defs>
					<path id="SVGID_1_" d="M830.062,327.611c0.185-0.165,0.379-0.321,0.562-0.488c0.717-0.652,1.413-1.327,2.104-2.007
						c0.146-0.144,0.299-0.28,0.444-0.424c0.695-0.696,1.368-1.413,2.035-2.135c0.13-0.141,0.268-0.275,0.397-0.417
						c0.669-0.736,1.315-1.493,1.954-2.256c0.116-0.138,0.239-0.271,0.354-0.41c0.653-0.792,1.282-1.602,1.901-2.42
						c0.091-0.12,0.188-0.235,0.279-0.355c0.623-0.833,1.222-1.685,1.809-2.545c0.078-0.113,0.162-0.222,0.239-0.336
						c0.587-0.869,1.15-1.756,1.7-2.652c0.069-0.111,0.143-0.218,0.211-0.329c0.534-0.88,1.043-1.777,1.541-2.681
						c0.074-0.134,0.156-0.264,0.229-0.399c0.49-0.903,0.954-1.822,1.406-2.746c0.07-0.142,0.147-0.28,0.216-0.422
						c0.436-0.905,0.844-1.826,1.244-2.752c0.073-0.169,0.155-0.334,0.227-0.504c0.386-0.913,0.743-1.84,1.093-2.771
						c0.071-0.19,0.153-0.375,0.223-0.566c0.333-0.911,0.637-1.836,0.935-2.763c0.07-0.219,0.152-0.432,0.22-0.652
						c0.28-0.901,0.53-1.816,0.775-2.731c0.068-0.254,0.149-0.502,0.214-0.757c0.232-0.901,0.432-1.815,0.63-2.729
						c0.06-0.277,0.133-0.548,0.19-0.826c0.189-0.925,0.345-1.86,0.499-2.797c0.046-0.275,0.105-0.546,0.147-0.822
						c0.137-0.899,0.241-1.81,0.345-2.72c0.037-0.321,0.089-0.637,0.121-0.958c0.092-0.9,0.148-1.809,0.207-2.718
						c0.022-0.339,0.06-0.673,0.077-1.013c0.06-1.202,0.089-2.412,0.091-3.628c0-0.051,0.004-0.101,0.004-0.152
						c-0.001-15.223-4.63-29.364-12.556-41.094c-1.982-2.932-4.169-5.715-6.542-8.325c-2.844-3.128-5.967-5.995-9.307-8.594
						c-2.778-2.163-5.715-4.129-8.792-5.881c-5.662-3.224-11.785-5.728-18.258-7.362c-5.777-1.458-11.823-2.24-18.052-2.239
						c-0.066,0-0.135,0-0.2,0c-0.746,0.002-1.483,0.037-2.223,0.061c-0.473,0.015-0.95,0.014-1.42,0.039
						c-0.907,0.047-1.805,0.126-2.703,0.206c-0.33,0.029-0.665,0.043-0.994,0.077c-2.454,0.25-4.871,0.621-7.247,1.106
						c-0.293,0.06-0.58,0.137-0.871,0.2c-0.889,0.194-1.779,0.388-2.656,0.613c-0.384,0.099-0.761,0.217-1.144,0.322
						c-0.775,0.213-1.551,0.421-2.316,0.658c-0.42,0.13-0.831,0.28-1.248,0.418c-0.716,0.236-1.434,0.467-2.14,0.725
						c-0.438,0.16-0.866,0.339-1.3,0.507c-0.672,0.26-1.347,0.514-2.01,0.793c-0.447,0.188-0.884,0.395-1.327,0.591
						c-0.637,0.283-1.277,0.561-1.904,0.861c-0.447,0.214-0.883,0.446-1.325,0.669c-0.609,0.307-1.221,0.609-1.821,0.933
						c-0.444,0.239-0.877,0.497-1.315,0.744c-0.582,0.33-1.167,0.655-1.74,1.001c-0.441,0.266-0.87,0.548-1.304,0.822
						c-0.555,0.351-1.112,0.697-1.657,1.062c-0.434,0.291-0.857,0.597-1.284,0.897c-0.529,0.371-1.06,0.738-1.578,1.123
						c-0.426,0.315-0.839,0.645-1.257,0.969c-0.504,0.39-1.009,0.777-1.502,1.181c-0.415,0.339-0.817,0.691-1.224,1.039
						c-0.479,0.41-0.96,0.816-1.429,1.238c-0.402,0.362-0.793,0.737-1.187,1.107c-0.454,0.426-0.909,0.85-1.351,1.288
						c-0.391,0.387-0.77,0.785-1.152,1.18c-0.427,0.442-0.856,0.881-1.271,1.334c-0.376,0.409-0.74,0.829-1.106,1.246
						c-0.402,0.457-0.805,0.913-1.196,1.381c-0.36,0.431-0.709,0.872-1.06,1.311c-0.376,0.472-0.753,0.941-1.117,1.422
						c-0.343,0.453-0.674,0.914-1.008,1.375c-0.351,0.484-0.701,0.968-1.039,1.462c-0.325,0.474-0.639,0.956-0.953,1.438
						c-0.324,0.496-0.648,0.993-0.96,1.497c-0.305,0.494-0.599,0.995-0.893,1.497c-0.298,0.509-0.596,1.018-0.882,1.534
						c-0.284,0.512-0.556,1.031-0.828,1.551c-0.273,0.521-0.544,1.042-0.804,1.57c-0.261,0.531-0.512,1.067-0.761,1.605
						c-0.245,0.531-0.49,1.062-0.724,1.6c-0.238,0.548-0.465,1.102-0.69,1.657c-0.219,0.542-0.436,1.084-0.643,1.632
						c-0.213,0.564-0.415,1.133-0.615,1.703c-0.193,0.551-0.381,1.103-0.561,1.66c-0.187,0.58-0.364,1.163-0.537,1.749
						c-0.165,0.56-0.327,1.122-0.479,1.689c-0.16,0.593-0.31,1.19-0.455,1.789c-0.138,0.569-0.271,1.14-0.396,1.715
						c-0.132,0.606-0.254,1.216-0.37,1.829c-0.11,0.578-0.215,1.158-0.311,1.74c-0.102,0.618-0.196,1.239-0.283,1.862
						c-0.082,0.587-0.157,1.176-0.224,1.768c-0.072,0.628-0.136,1.258-0.193,1.891c-0.053,0.596-0.097,1.192-0.136,1.792
						c-0.041,0.638-0.074,1.277-0.099,1.918c-0.011,0.285-0.036,0.567-0.044,0.853l-7.33,0l-10.015,0l0,0l0,0l-228.95,0.018
						l-122.032,0.009l-14.07,8.775l0.019,243.771l0.003,31.678l214.411-0.017l186.548-0.015c0.047,0,0.094,0,0.14,0
						c0.463-0.001,0.921-0.028,1.382-0.041c0.457-0.013,0.916-0.015,1.37-0.041c0.482-0.026,0.957-0.077,1.435-0.116
						c0.45-0.038,0.904-0.064,1.351-0.113c0.475-0.053,0.943-0.127,1.414-0.192c0.444-0.061,0.891-0.112,1.331-0.185
						c0.464-0.076,0.92-0.174,1.38-0.263c0.44-0.085,0.885-0.16,1.322-0.255c0.456-0.1,0.905-0.223,1.357-0.335
						c0.432-0.107,0.868-0.204,1.296-0.323c0.454-0.126,0.9-0.272,1.349-0.409c0.418-0.128,0.84-0.246,1.254-0.383
						c0.446-0.149,0.882-0.318,1.323-0.479c0.409-0.149,0.822-0.287,1.226-0.446c0.435-0.171,0.86-0.362,1.29-0.544
						c0.4-0.17,0.805-0.33,1.2-0.509c0.426-0.193,0.841-0.405,1.261-0.609c0.389-0.189,0.783-0.368,1.168-0.567
						c0.425-0.219,0.839-0.458,1.258-0.689c0.368-0.203,0.742-0.396,1.105-0.608c0.419-0.244,0.826-0.506,1.238-0.761
						c0.353-0.219,0.711-0.427,1.059-0.654c0.404-0.262,0.795-0.544,1.193-0.817c0.344-0.237,0.694-0.465,1.033-0.71
						c0.393-0.284,0.774-0.587,1.159-0.881c0.33-0.252,0.666-0.495,0.991-0.755c0.383-0.307,0.753-0.631,1.129-0.948
						c0.314-0.265,0.634-0.522,0.943-0.794c0.371-0.328,0.728-0.672,1.09-1.01c0.3-0.279,0.606-0.549,0.9-0.835
						c0.356-0.346,0.697-0.708,1.044-1.065c0.287-0.293,0.58-0.579,0.861-0.879c0.339-0.363,0.663-0.741,0.993-1.114
						c0.274-0.309,0.555-0.61,0.823-0.924c0.331-0.389,0.646-0.794,0.966-1.192c0.251-0.313,0.511-0.617,0.757-0.936
						c0.316-0.409,0.616-0.834,0.921-1.253c0.235-0.322,0.479-0.636,0.707-0.964c0.297-0.424,0.577-0.863,0.863-1.297
						c0.221-0.335,0.451-0.663,0.666-1.003c0.282-0.446,0.546-0.906,0.816-1.361c0.202-0.341,0.414-0.674,0.61-1.019
						c0.265-0.466,0.511-0.946,0.764-1.421c0.184-0.346,0.378-0.685,0.556-1.035c0.244-0.481,0.469-0.975,0.702-1.464
						c0.169-0.356,0.348-0.706,0.51-1.066c0.216-0.48,0.413-0.971,0.617-1.458c0.16-0.381,0.329-0.756,0.482-1.141
						c0.2-0.506,0.379-1.022,0.566-1.535c0.137-0.377,0.285-0.748,0.415-1.128c0.192-0.562,0.363-1.135,0.54-1.704
						c0.105-0.341,0.222-0.677,0.322-1.02c0.163-0.561,0.304-1.133,0.452-1.701c0.094-0.363,0.2-0.719,0.287-1.084
						c0.144-0.602,0.266-1.212,0.393-1.82c0.071-0.34,0.153-0.674,0.219-1.016c0.117-0.612,0.21-1.233,0.309-1.852
						c0.056-0.347,0.123-0.689,0.173-1.038c0.095-0.663,0.164-1.335,0.238-2.006c0.034-0.31,0.08-0.617,0.11-0.928
						c0.078-0.819,0.13-1.647,0.176-2.476c0.009-0.169,0.028-0.334,0.035-0.503c0.047-1,0.071-2.007,0.072-3.019l-0.006-73.215
						l-0.006-69.939l0,0l0-6.867c0.064,0,0.135,0,0.2,0c0.607-0.002,1.206-0.034,1.81-0.05c0.623-0.017,1.25-0.02,1.869-0.052
						c0.639-0.034,1.271-0.096,1.907-0.145c0.607-0.047,1.217-0.081,1.82-0.143c0.639-0.066,1.269-0.16,1.903-0.242
						c0.59-0.076,1.185-0.139,1.771-0.229c0.638-0.098,1.266-0.225,1.898-0.339c0.572-0.104,1.148-0.194,1.715-0.31
						c0.647-0.134,1.284-0.295,1.924-0.445c0.541-0.126,1.087-0.24,1.623-0.378c0.658-0.17,1.304-0.367,1.954-0.555
						c0.509-0.147,1.023-0.28,1.528-0.438c0.673-0.21,1.334-0.448,1.999-0.677c0.469-0.161,0.944-0.309,1.408-0.479
						c0.681-0.251,1.35-0.528,2.021-0.797c0.436-0.175,0.879-0.337,1.311-0.52c0.688-0.291,1.361-0.61,2.039-0.922
						c0.402-0.185,0.812-0.358,1.21-0.55c0.706-0.341,1.397-0.708,2.09-1.071c0.356-0.186,0.719-0.36,1.071-0.551
						c0.719-0.391,1.422-0.808,2.126-1.222c0.314-0.185,0.636-0.357,0.947-0.547c0.725-0.441,1.434-0.908,2.142-1.374
						c0.276-0.182,0.561-0.352,0.835-0.537c0.722-0.488,1.425-1.001,2.128-1.513c0.248-0.181,0.504-0.351,0.75-0.535
						c0.719-0.538,1.42-1.101,2.119-1.665c0.216-0.174,0.44-0.339,0.653-0.516C828.676,328.841,829.37,328.228,830.062,327.611z"/>
				</defs>
				<clipPath id="SVGID_00000097466207965612544430000007270967775556665509_">
					<use xlink:href="#SVGID_1_"  style="overflow:visible;"/>
				</clipPath>
				<g style="clip-path:url(#SVGID_00000097466207965612544430000007270967775556665509_);">
					<polygon style="fill:#B7B7B7;" points="854.069,554.983 854.685,550.24 854.685,554.983 					"/>
				</g>
				<g style="clip-path:url(#SVGID_00000097466207965612544430000007270967775556665509_);">
					<polygon style="fill:#B6B6B6;" points="852.763,554.983 854.685,540.18 854.685,550.24 854.069,554.983 					"/>
				</g>
				<g style="clip-path:url(#SVGID_00000097466207965612544430000007270967775556665509_);">
					<polygon style="fill:#B4B4B4;" points="851.456,554.983 854.685,530.12 854.685,540.18 852.763,554.983 					"/>
				</g>
				<g style="clip-path:url(#SVGID_00000097466207965612544430000007270967775556665509_);">
					<polygon style="fill:#B3B3B3;" points="850.15,554.983 854.685,520.061 854.685,530.12 851.456,554.983 					"/>
				</g>
				<g style="clip-path:url(#SVGID_00000097466207965612544430000007270967775556665509_);">
					<polygon style="fill:#B1B1B1;" points="848.843,554.983 854.685,510.001 854.685,520.061 850.15,554.983 					"/>
				</g>
				<g style="clip-path:url(#SVGID_00000097466207965612544430000007270967775556665509_);">
					<polygon style="fill:#B0B0B0;" points="847.537,554.983 854.685,499.941 854.685,510.001 848.843,554.983 					"/>
				</g>
				<g style="clip-path:url(#SVGID_00000097466207965612544430000007270967775556665509_);">
					<polygon style="fill:#AFAFAF;" points="846.23,554.983 854.685,489.882 854.685,499.941 847.537,554.983 					"/>
				</g>
				<g style="clip-path:url(#SVGID_00000097466207965612544430000007270967775556665509_);">
					<polygon style="fill:#ADADAD;" points="844.924,554.983 854.685,479.822 854.685,489.882 846.23,554.983 					"/>
				</g>
				<g style="clip-path:url(#SVGID_00000097466207965612544430000007270967775556665509_);">
					<polygon style="fill:#ACACAC;" points="843.618,554.983 854.685,469.762 854.685,479.822 844.924,554.983 					"/>
				</g>
				<g style="clip-path:url(#SVGID_00000097466207965612544430000007270967775556665509_);">
					<polygon style="fill:#AAAAAA;" points="842.311,554.983 854.685,459.703 854.685,469.762 843.618,554.983 					"/>
				</g>
				<g style="clip-path:url(#SVGID_00000097466207965612544430000007270967775556665509_);">
					<polygon style="fill:#A9A9A9;" points="841.005,554.983 854.685,449.643 854.685,459.703 842.311,554.983 					"/>
				</g>
				<g style="clip-path:url(#SVGID_00000097466207965612544430000007270967775556665509_);">
					<polygon style="fill:#A8A8A8;" points="839.698,554.983 854.685,439.583 854.685,449.643 841.005,554.983 					"/>
				</g>
				<g style="clip-path:url(#SVGID_00000097466207965612544430000007270967775556665509_);">
					<polygon style="fill:#A6A6A6;" points="838.392,554.983 854.685,429.524 854.685,439.583 839.698,554.983 					"/>
				</g>
				<g style="clip-path:url(#SVGID_00000097466207965612544430000007270967775556665509_);">
					<polygon style="fill:#A5A5A5;" points="837.086,554.983 854.685,419.464 854.685,429.524 838.392,554.983 					"/>
				</g>
				<g style="clip-path:url(#SVGID_00000097466207965612544430000007270967775556665509_);">
					<polygon style="fill:#A4A4A4;" points="835.779,554.983 854.685,409.404 854.685,419.464 837.086,554.983 					"/>
				</g>
				<g style="clip-path:url(#SVGID_00000097466207965612544430000007270967775556665509_);">
					<polygon style="fill:#A2A2A2;" points="834.473,554.983 854.685,399.345 854.685,409.404 835.779,554.983 					"/>
				</g>
				<g style="clip-path:url(#SVGID_00000097466207965612544430000007270967775556665509_);">
					<polygon style="fill:#A1A1A1;" points="833.166,554.983 854.685,389.285 854.685,399.345 834.473,554.983 					"/>
				</g>
				<g style="clip-path:url(#SVGID_00000097466207965612544430000007270967775556665509_);">
					<polygon style="fill:#9F9F9F;" points="831.86,554.983 854.685,379.225 854.685,389.285 833.166,554.983 					"/>
				</g>
				<g style="clip-path:url(#SVGID_00000097466207965612544430000007270967775556665509_);">
					<polygon style="fill:#9E9E9E;" points="830.553,554.983 854.685,369.166 854.685,379.225 831.86,554.983 					"/>
				</g>
				<g style="clip-path:url(#SVGID_00000097466207965612544430000007270967775556665509_);">
					<polygon style="fill:#9D9D9D;" points="829.247,554.983 854.685,359.106 854.685,369.166 830.553,554.983 					"/>
				</g>
				<g style="clip-path:url(#SVGID_00000097466207965612544430000007270967775556665509_);">
					<polygon style="fill:#9B9B9B;" points="827.94,554.983 854.685,349.046 854.685,359.106 829.247,554.983 					"/>
				</g>
				<g style="clip-path:url(#SVGID_00000097466207965612544430000007270967775556665509_);">
					<polygon style="fill:#9A9A9A;" points="826.634,554.983 854.685,338.987 854.685,349.046 827.94,554.983 					"/>
				</g>
				<g style="clip-path:url(#SVGID_00000097466207965612544430000007270967775556665509_);">
					<polygon style="fill:#999999;" points="825.328,554.983 854.685,328.927 854.685,338.987 826.634,554.983 					"/>
				</g>
				<g style="clip-path:url(#SVGID_00000097466207965612544430000007270967775556665509_);">
					<polygon style="fill:#979797;" points="824.021,554.983 854.685,318.867 854.685,328.927 825.328,554.983 					"/>
				</g>
				<g style="clip-path:url(#SVGID_00000097466207965612544430000007270967775556665509_);">
					<polygon style="fill:#969696;" points="822.715,554.983 854.685,308.807 854.685,318.867 824.021,554.983 					"/>
				</g>
				<g style="clip-path:url(#SVGID_00000097466207965612544430000007270967775556665509_);">
					<polygon style="fill:#959595;" points="821.408,554.983 854.685,298.748 854.685,308.807 822.715,554.983 					"/>
				</g>
				<g style="clip-path:url(#SVGID_00000097466207965612544430000007270967775556665509_);">
					<polygon style="fill:#939393;" points="820.102,554.983 854.685,288.688 854.685,298.748 821.408,554.983 					"/>
				</g>
				<g style="clip-path:url(#SVGID_00000097466207965612544430000007270967775556665509_);">
					<polygon style="fill:#929292;" points="818.795,554.983 854.685,278.629 854.685,288.688 820.102,554.983 					"/>
				</g>
				<g style="clip-path:url(#SVGID_00000097466207965612544430000007270967775556665509_);">
					<polygon style="fill:#919191;" points="817.489,554.983 854.685,268.569 854.685,278.629 818.795,554.983 					"/>
				</g>
				<g style="clip-path:url(#SVGID_00000097466207965612544430000007270967775556665509_);">
					<polygon style="fill:#909090;" points="816.182,554.983 854.685,258.509 854.685,268.569 817.489,554.983 					"/>
				</g>
				<g style="clip-path:url(#SVGID_00000097466207965612544430000007270967775556665509_);">
					<polygon style="fill:#8E8E8E;" points="814.876,554.983 854.685,248.449 854.685,258.509 816.182,554.983 					"/>
				</g>
				<g style="clip-path:url(#SVGID_00000097466207965612544430000007270967775556665509_);">
					<polygon style="fill:#8D8D8D;" points="813.57,554.983 854.685,238.39 854.685,248.449 814.876,554.983 					"/>
				</g>
				<g style="clip-path:url(#SVGID_00000097466207965612544430000007270967775556665509_);">
					<polygon style="fill:#8C8C8C;" points="812.263,554.983 854.685,228.33 854.685,238.39 813.57,554.983 					"/>
				</g>
				<g style="clip-path:url(#SVGID_00000097466207965612544430000007270967775556665509_);">
					<polygon style="fill:#8A8A8A;" points="810.957,554.983 854.685,218.27 854.685,228.33 812.263,554.983 					"/>
				</g>
				<g style="clip-path:url(#SVGID_00000097466207965612544430000007270967775556665509_);">
					<polygon style="fill:#898989;" points="809.65,554.983 854.685,208.211 854.685,218.27 810.957,554.983 					"/>
				</g>
				<g style="clip-path:url(#SVGID_00000097466207965612544430000007270967775556665509_);">
					<polygon style="fill:#888888;" points="808.344,554.983 853.689,205.819 854.685,205.949 854.685,208.211 809.65,554.983 					
						"/>
				</g>
				<g style="clip-path:url(#SVGID_00000097466207965612544430000007270967775556665509_);">
					<polygon style="fill:#868686;" points="807.037,554.983 852.404,205.652 853.689,205.819 808.344,554.983 					"/>
				</g>
				<g style="clip-path:url(#SVGID_00000097466207965612544430000007270967775556665509_);">
					<polygon style="fill:#858585;" points="805.731,554.983 851.12,205.485 852.404,205.652 807.037,554.983 					"/>
				</g>
				<g style="clip-path:url(#SVGID_00000097466207965612544430000007270967775556665509_);">
					<polygon style="fill:#848484;" points="804.424,554.983 849.835,205.319 851.12,205.485 805.731,554.983 					"/>
				</g>
				<g style="clip-path:url(#SVGID_00000097466207965612544430000007270967775556665509_);">
					<polygon style="fill:#838383;" points="803.118,554.983 848.55,205.152 849.835,205.319 804.424,554.983 					"/>
				</g>
				<g style="clip-path:url(#SVGID_00000097466207965612544430000007270967775556665509_);">
					<polygon style="fill:#818181;" points="801.812,554.983 847.265,204.985 848.55,205.152 803.118,554.983 					"/>
				</g>
				<g style="clip-path:url(#SVGID_00000097466207965612544430000007270967775556665509_);">
					<polygon style="fill:#808080;" points="800.505,554.983 845.981,204.818 847.265,204.985 801.812,554.983 					"/>
				</g>
				<g style="clip-path:url(#SVGID_00000097466207965612544430000007270967775556665509_);">
					<polygon style="fill:#7F7F7F;" points="799.199,554.983 844.696,204.651 845.981,204.818 800.505,554.983 					"/>
				</g>
				<g style="clip-path:url(#SVGID_00000097466207965612544430000007270967775556665509_);">
					<polygon style="fill:#7E7E7E;" points="797.892,554.983 843.411,204.484 844.696,204.651 799.199,554.983 					"/>
				</g>
				<g style="clip-path:url(#SVGID_00000097466207965612544430000007270967775556665509_);">
					<polygon style="fill:#7C7C7C;" points="796.586,554.983 842.126,204.318 843.411,204.484 797.892,554.983 					"/>
				</g>
				<g style="clip-path:url(#SVGID_00000097466207965612544430000007270967775556665509_);">
					<polygon style="fill:#7B7B7B;" points="795.279,554.983 840.842,204.151 842.126,204.318 796.586,554.983 					"/>
				</g>
				<g style="clip-path:url(#SVGID_00000097466207965612544430000007270967775556665509_);">
					<polygon style="fill:#7A7A7A;" points="793.973,554.983 839.557,203.984 840.842,204.151 795.279,554.983 					"/>
				</g>
				<g style="clip-path:url(#SVGID_00000097466207965612544430000007270967775556665509_);">
					<polygon style="fill:#797979;" points="792.667,554.983 838.272,203.817 839.557,203.984 793.973,554.983 					"/>
				</g>
				<g style="clip-path:url(#SVGID_00000097466207965612544430000007270967775556665509_);">
					<polygon style="fill:#787878;" points="791.36,554.983 836.987,203.65 838.272,203.817 792.667,554.983 					"/>
				</g>
				<g style="clip-path:url(#SVGID_00000097466207965612544430000007270967775556665509_);">
					<polygon style="fill:#767676;" points="790.054,554.983 835.703,203.483 836.987,203.65 791.36,554.983 					"/>
				</g>
				<g style="clip-path:url(#SVGID_00000097466207965612544430000007270967775556665509_);">
					<polygon style="fill:#757575;" points="788.747,554.983 834.418,203.316 835.703,203.483 790.054,554.983 					"/>
				</g>
				<g style="clip-path:url(#SVGID_00000097466207965612544430000007270967775556665509_);">
					<polygon style="fill:#747474;" points="787.441,554.983 833.133,203.15 834.418,203.316 788.747,554.983 					"/>
				</g>
				<g style="clip-path:url(#SVGID_00000097466207965612544430000007270967775556665509_);">
					<polygon style="fill:#737373;" points="786.134,554.983 831.848,202.983 833.133,203.15 787.441,554.983 					"/>
				</g>
				<g style="clip-path:url(#SVGID_00000097466207965612544430000007270967775556665509_);">
					<polygon style="fill:#727272;" points="784.828,554.983 830.563,202.816 831.848,202.983 786.134,554.983 					"/>
				</g>
				<g style="clip-path:url(#SVGID_00000097466207965612544430000007270967775556665509_);">
					<polygon style="fill:#707070;" points="783.521,554.983 829.279,202.649 830.563,202.816 784.828,554.983 					"/>
				</g>
				<g style="clip-path:url(#SVGID_00000097466207965612544430000007270967775556665509_);">
					<polygon style="fill:#6F6F6F;" points="782.215,554.983 827.994,202.482 829.279,202.649 783.521,554.983 					"/>
				</g>
				<g style="clip-path:url(#SVGID_00000097466207965612544430000007270967775556665509_);">
					<polygon style="fill:#6E6E6E;" points="780.909,554.983 826.709,202.315 827.994,202.482 782.215,554.983 					"/>
				</g>
				<g style="clip-path:url(#SVGID_00000097466207965612544430000007270967775556665509_);">
					<polygon style="fill:#6D6D6D;" points="779.602,554.983 825.424,202.148 826.709,202.315 780.909,554.983 					"/>
				</g>
				<g style="clip-path:url(#SVGID_00000097466207965612544430000007270967775556665509_);">
					<polygon style="fill:#6C6C6C;" points="778.296,554.983 824.139,201.982 825.424,202.148 779.602,554.983 					"/>
				</g>
				<g style="clip-path:url(#SVGID_00000097466207965612544430000007270967775556665509_);">
					<polygon style="fill:#6A6A6A;" points="776.989,554.983 822.855,201.815 824.139,201.982 778.296,554.983 					"/>
				</g>
				<g style="clip-path:url(#SVGID_00000097466207965612544430000007270967775556665509_);">
					<polygon style="fill:#696969;" points="775.683,554.983 821.57,201.648 822.855,201.815 776.989,554.983 					"/>
				</g>
				<g style="clip-path:url(#SVGID_00000097466207965612544430000007270967775556665509_);">
					<polygon style="fill:#686868;" points="774.376,554.983 820.285,201.481 821.57,201.648 775.683,554.983 					"/>
				</g>
				<g style="clip-path:url(#SVGID_00000097466207965612544430000007270967775556665509_);">
					<polygon style="fill:#676767;" points="773.07,554.983 819,201.314 820.285,201.481 774.376,554.983 					"/>
				</g>
				<g style="clip-path:url(#SVGID_00000097466207965612544430000007270967775556665509_);">
					<polygon style="fill:#666666;" points="771.763,554.983 817.716,201.147 819,201.314 773.07,554.983 					"/>
				</g>
				<g style="clip-path:url(#SVGID_00000097466207965612544430000007270967775556665509_);">
					<polygon style="fill:#656565;" points="770.457,554.983 816.431,200.98 817.716,201.147 771.763,554.983 					"/>
				</g>
				<g style="clip-path:url(#SVGID_00000097466207965612544430000007270967775556665509_);">
					<polygon style="fill:#646464;" points="769.151,554.983 815.146,200.814 816.431,200.98 770.457,554.983 					"/>
				</g>
				<g style="clip-path:url(#SVGID_00000097466207965612544430000007270967775556665509_);">
					<polygon style="fill:#626262;" points="767.844,554.983 813.861,200.647 815.146,200.814 769.151,554.983 					"/>
				</g>
				<g style="clip-path:url(#SVGID_00000097466207965612544430000007270967775556665509_);">
					<polygon style="fill:#616161;" points="766.538,554.983 812.577,200.48 813.861,200.647 767.844,554.983 					"/>
				</g>
				<g style="clip-path:url(#SVGID_00000097466207965612544430000007270967775556665509_);">
					<polygon style="fill:#606060;" points="765.231,554.983 811.292,200.313 812.577,200.48 766.538,554.983 					"/>
				</g>
				<g style="clip-path:url(#SVGID_00000097466207965612544430000007270967775556665509_);">
					<polygon style="fill:#5F5F5F;" points="763.925,554.983 810.007,200.146 811.292,200.313 765.231,554.983 					"/>
				</g>
				<g style="clip-path:url(#SVGID_00000097466207965612544430000007270967775556665509_);">
					<polygon style="fill:#5E5E5E;" points="762.618,554.983 808.722,199.979 810.007,200.146 763.925,554.983 					"/>
				</g>
				<g style="clip-path:url(#SVGID_00000097466207965612544430000007270967775556665509_);">
					<polygon style="fill:#5D5D5D;" points="761.312,554.983 807.438,199.813 808.722,199.979 762.618,554.983 					"/>
				</g>
				<g style="clip-path:url(#SVGID_00000097466207965612544430000007270967775556665509_);">
					<polygon style="fill:#5C5C5C;" points="760.005,554.983 806.153,199.646 807.438,199.813 761.312,554.983 					"/>
				</g>
				<g style="clip-path:url(#SVGID_00000097466207965612544430000007270967775556665509_);">
					<polygon style="fill:#5B5B5B;" points="758.699,554.983 804.868,199.479 806.153,199.646 760.005,554.983 					"/>
				</g>
				<g style="clip-path:url(#SVGID_00000097466207965612544430000007270967775556665509_);">
					<polygon style="fill:#5A5A5A;" points="757.393,554.983 803.583,199.312 804.868,199.479 758.699,554.983 					"/>
				</g>
				<g style="clip-path:url(#SVGID_00000097466207965612544430000007270967775556665509_);">
					<polygon style="fill:#585858;" points="756.086,554.983 802.287,199.232 802.965,199.232 803.583,199.312 757.393,554.983 
											"/>
				</g>
				<g style="clip-path:url(#SVGID_00000097466207965612544430000007270967775556665509_);">
					<polygon style="fill:#575757;" points="754.78,554.983 800.981,199.232 802.287,199.232 756.086,554.983 					"/>
				</g>
				<g style="clip-path:url(#SVGID_00000097466207965612544430000007270967775556665509_);">
					<polygon style="fill:#565656;" points="753.473,554.983 799.674,199.232 800.981,199.232 754.78,554.983 					"/>
				</g>
				<g style="clip-path:url(#SVGID_00000097466207965612544430000007270967775556665509_);">
					<polygon style="fill:#555555;" points="752.167,554.983 798.368,199.232 799.674,199.232 753.473,554.983 					"/>
				</g>
				<g style="clip-path:url(#SVGID_00000097466207965612544430000007270967775556665509_);">
					<polygon style="fill:#545454;" points="750.86,554.983 797.061,199.232 798.368,199.232 752.167,554.983 					"/>
				</g>
				<g style="clip-path:url(#SVGID_00000097466207965612544430000007270967775556665509_);">
					<polygon style="fill:#535353;" points="749.554,554.983 795.755,199.232 797.061,199.232 750.86,554.983 					"/>
				</g>
				<g style="clip-path:url(#SVGID_00000097466207965612544430000007270967775556665509_);">
					<polygon style="fill:#525252;" points="748.247,554.983 794.448,199.232 795.755,199.232 749.554,554.983 					"/>
				</g>
				<g style="clip-path:url(#SVGID_00000097466207965612544430000007270967775556665509_);">
					<polygon style="fill:#515151;" points="746.941,554.983 793.142,199.232 794.448,199.232 748.247,554.983 					"/>
				</g>
				<g style="clip-path:url(#SVGID_00000097466207965612544430000007270967775556665509_);">
					<polygon style="fill:#505050;" points="745.635,554.983 791.836,199.232 793.142,199.232 746.941,554.983 					"/>
				</g>
				<g style="clip-path:url(#SVGID_00000097466207965612544430000007270967775556665509_);">
					<polygon style="fill:#4F4F4F;" points="744.328,554.983 790.529,199.232 791.836,199.232 745.635,554.983 					"/>
				</g>
				<g style="clip-path:url(#SVGID_00000097466207965612544430000007270967775556665509_);">
					<polygon style="fill:#4E4E4E;" points="743.022,554.983 789.223,199.232 790.529,199.232 744.328,554.983 					"/>
				</g>
				<g style="clip-path:url(#SVGID_00000097466207965612544430000007270967775556665509_);">
					<polygon style="fill:#4D4D4D;" points="741.715,554.983 787.916,199.232 789.223,199.232 743.022,554.983 					"/>
				</g>
				<g style="clip-path:url(#SVGID_00000097466207965612544430000007270967775556665509_);">
					<polygon style="fill:#4C4C4C;" points="740.409,554.983 786.61,199.232 787.916,199.232 741.715,554.983 					"/>
				</g>
				<g style="clip-path:url(#SVGID_00000097466207965612544430000007270967775556665509_);">
					<polygon style="fill:#4B4B4B;" points="739.102,554.983 785.303,199.232 786.61,199.232 740.409,554.983 					"/>
				</g>
				<g style="clip-path:url(#SVGID_00000097466207965612544430000007270967775556665509_);">
					<polygon style="fill:#4A4A4A;" points="737.796,554.983 783.997,199.232 785.303,199.232 739.102,554.983 					"/>
				</g>
				<g style="clip-path:url(#SVGID_00000097466207965612544430000007270967775556665509_);">
					<polygon style="fill:#494949;" points="736.49,554.983 782.691,199.232 783.997,199.232 737.796,554.983 					"/>
				</g>
				<g style="clip-path:url(#SVGID_00000097466207965612544430000007270967775556665509_);">
					<polygon style="fill:#484848;" points="735.183,554.983 781.384,199.232 782.691,199.232 736.49,554.983 					"/>
				</g>
				<g style="clip-path:url(#SVGID_00000097466207965612544430000007270967775556665509_);">
					<polygon style="fill:#474747;" points="733.877,554.983 780.078,199.232 781.384,199.232 735.183,554.983 					"/>
				</g>
				<g style="clip-path:url(#SVGID_00000097466207965612544430000007270967775556665509_);">
					<polygon style="fill:#464646;" points="732.57,554.983 778.771,199.232 780.078,199.232 733.877,554.983 					"/>
				</g>
				<g style="clip-path:url(#SVGID_00000097466207965612544430000007270967775556665509_);">
					<polygon style="fill:#454545;" points="731.264,554.983 777.465,199.232 778.771,199.232 732.57,554.983 					"/>
				</g>
				<g style="clip-path:url(#SVGID_00000097466207965612544430000007270967775556665509_);">
					<polygon style="fill:#444444;" points="729.957,554.983 776.158,199.232 777.465,199.232 731.264,554.983 					"/>
				</g>
				<g style="clip-path:url(#SVGID_00000097466207965612544430000007270967775556665509_);">
					<polygon style="fill:#434343;" points="728.651,554.983 774.852,199.232 776.158,199.232 729.957,554.983 					"/>
				</g>
				<g style="clip-path:url(#SVGID_00000097466207965612544430000007270967775556665509_);">
					<polygon style="fill:#424242;" points="727.344,554.983 773.545,199.232 774.852,199.232 728.651,554.983 					"/>
				</g>
				<g style="clip-path:url(#SVGID_00000097466207965612544430000007270967775556665509_);">
					<polygon style="fill:#414141;" points="726.038,554.983 772.239,199.232 773.545,199.232 727.344,554.983 					"/>
				</g>
				<g style="clip-path:url(#SVGID_00000097466207965612544430000007270967775556665509_);">
					<polygon style="fill:#404040;" points="724.732,554.983 770.933,199.232 772.239,199.232 726.038,554.983 					"/>
				</g>
				<g style="clip-path:url(#SVGID_00000097466207965612544430000007270967775556665509_);">
					<polygon style="fill:#3F3F3F;" points="723.425,554.983 769.626,199.232 770.933,199.232 724.732,554.983 					"/>
				</g>
				<g style="clip-path:url(#SVGID_00000097466207965612544430000007270967775556665509_);">
					<polygon style="fill:#3E3E3E;" points="722.119,554.983 768.32,199.232 769.626,199.232 723.425,554.983 					"/>
				</g>
				<g style="clip-path:url(#SVGID_00000097466207965612544430000007270967775556665509_);">
					<polygon style="fill:#3D3D3D;" points="720.812,554.983 767.013,199.232 768.32,199.232 722.119,554.983 					"/>
				</g>
				<g style="clip-path:url(#SVGID_00000097466207965612544430000007270967775556665509_);">
					<polygon style="fill:#3C3C3C;" points="719.506,554.983 765.707,199.232 767.013,199.232 720.812,554.983 					"/>
				</g>
				<g style="clip-path:url(#SVGID_00000097466207965612544430000007270967775556665509_);">
					<polygon style="fill:#3B3B3B;" points="718.199,554.983 764.4,199.232 765.707,199.232 719.506,554.983 					"/>
				</g>
				<g style="clip-path:url(#SVGID_00000097466207965612544430000007270967775556665509_);">
					<polygon style="fill:#3A3A3A;" points="716.893,554.983 763.094,199.232 764.4,199.232 718.199,554.983 					"/>
				</g>
				<g style="clip-path:url(#SVGID_00000097466207965612544430000007270967775556665509_);">
					<polygon style="fill:#393939;" points="715.586,554.983 761.787,199.232 763.094,199.232 716.893,554.983 					"/>
				</g>
				<g style="clip-path:url(#SVGID_00000097466207965612544430000007270967775556665509_);">
					<polygon style="fill:#383838;" points="714.28,554.983 760.481,199.232 761.787,199.232 715.586,554.983 					"/>
				</g>
				<g style="clip-path:url(#SVGID_00000097466207965612544430000007270967775556665509_);">
					<polygon style="fill:#383838;" points="712.974,554.983 759.175,199.232 760.481,199.232 714.28,554.983 					"/>
				</g>
				<g style="clip-path:url(#SVGID_00000097466207965612544430000007270967775556665509_);">
					<polygon style="fill:#373737;" points="711.667,554.983 757.868,199.232 759.175,199.232 712.974,554.983 					"/>
				</g>
				<g style="clip-path:url(#SVGID_00000097466207965612544430000007270967775556665509_);">
					<polygon style="fill:#363636;" points="710.361,554.983 756.562,199.232 757.868,199.232 711.667,554.983 					"/>
				</g>
				<g style="clip-path:url(#SVGID_00000097466207965612544430000007270967775556665509_);">
					<polygon style="fill:#353535;" points="709.054,554.983 755.255,199.232 756.562,199.232 710.361,554.983 					"/>
				</g>
				<g style="clip-path:url(#SVGID_00000097466207965612544430000007270967775556665509_);">
					<polygon style="fill:#343434;" points="707.748,554.983 753.949,199.232 755.255,199.232 709.054,554.983 					"/>
				</g>
				<g style="clip-path:url(#SVGID_00000097466207965612544430000007270967775556665509_);">
					<polygon style="fill:#333333;" points="706.441,554.983 752.642,199.232 753.949,199.232 707.748,554.983 					"/>
				</g>
				<g style="clip-path:url(#SVGID_00000097466207965612544430000007270967775556665509_);">
					<polygon style="fill:#323232;" points="705.135,554.983 751.336,199.232 752.642,199.232 706.441,554.983 					"/>
				</g>
				<g style="clip-path:url(#SVGID_00000097466207965612544430000007270967775556665509_);">
					<polygon style="fill:#313131;" points="703.828,554.983 750.029,199.232 751.336,199.232 705.135,554.983 					"/>
				</g>
				<g style="clip-path:url(#SVGID_00000097466207965612544430000007270967775556665509_);">
					<polygon style="fill:#313131;" points="702.522,554.983 748.723,199.232 750.029,199.232 703.828,554.983 					"/>
				</g>
				<g style="clip-path:url(#SVGID_00000097466207965612544430000007270967775556665509_);">
					<polygon style="fill:#303030;" points="701.216,554.983 747.417,199.232 748.723,199.232 702.522,554.983 					"/>
				</g>
				<g style="clip-path:url(#SVGID_00000097466207965612544430000007270967775556665509_);">
					<polygon style="fill:#2F2F2F;" points="699.909,554.983 746.11,199.232 747.417,199.232 701.216,554.983 					"/>
				</g>
				<g style="clip-path:url(#SVGID_00000097466207965612544430000007270967775556665509_);">
					<polygon style="fill:#2E2E2E;" points="698.603,554.983 744.804,199.232 746.11,199.232 699.909,554.983 					"/>
				</g>
				<g style="clip-path:url(#SVGID_00000097466207965612544430000007270967775556665509_);">
					<polygon style="fill:#2D2D2D;" points="697.296,554.983 743.497,199.232 744.804,199.232 698.603,554.983 					"/>
				</g>
				<g style="clip-path:url(#SVGID_00000097466207965612544430000007270967775556665509_);">
					<polygon style="fill:#2C2C2C;" points="695.99,554.983 742.191,199.232 743.497,199.232 697.296,554.983 					"/>
				</g>
				<g style="clip-path:url(#SVGID_00000097466207965612544430000007270967775556665509_);">
					<polygon style="fill:#2B2B2B;" points="694.683,554.983 740.885,199.232 742.191,199.232 695.99,554.983 					"/>
				</g>
				<g style="clip-path:url(#SVGID_00000097466207965612544430000007270967775556665509_);">
					<polygon style="fill:#2B2B2B;" points="693.377,554.983 739.578,199.232 740.885,199.232 694.683,554.983 					"/>
				</g>
				<g style="clip-path:url(#SVGID_00000097466207965612544430000007270967775556665509_);">
					<polygon style="fill:#2A2A2A;" points="692.07,554.983 738.272,199.232 739.578,199.232 693.377,554.983 					"/>
				</g>
				<g style="clip-path:url(#SVGID_00000097466207965612544430000007270967775556665509_);">
					<polygon style="fill:#292929;" points="690.764,554.983 736.965,199.232 738.272,199.232 692.07,554.983 					"/>
				</g>
				<g style="clip-path:url(#SVGID_00000097466207965612544430000007270967775556665509_);">
					<polygon style="fill:#282828;" points="689.458,554.983 735.659,199.232 736.965,199.232 690.764,554.983 					"/>
				</g>
				<g style="clip-path:url(#SVGID_00000097466207965612544430000007270967775556665509_);">
					<polygon style="fill:#272727;" points="688.151,554.983 734.352,199.232 735.659,199.232 689.458,554.983 					"/>
				</g>
				<g style="clip-path:url(#SVGID_00000097466207965612544430000007270967775556665509_);">
					<polygon style="fill:#272727;" points="686.845,554.983 733.046,199.232 734.352,199.232 688.151,554.983 					"/>
				</g>
				<g style="clip-path:url(#SVGID_00000097466207965612544430000007270967775556665509_);">
					<polygon style="fill:#262626;" points="685.538,554.983 731.739,199.232 733.046,199.232 686.845,554.983 					"/>
				</g>
				<g style="clip-path:url(#SVGID_00000097466207965612544430000007270967775556665509_);">
					<polygon style="fill:#252525;" points="684.232,554.983 730.433,199.232 731.739,199.232 685.538,554.983 					"/>
				</g>
				<g style="clip-path:url(#SVGID_00000097466207965612544430000007270967775556665509_);">
					<polygon style="fill:#242424;" points="682.925,554.983 729.127,199.232 730.433,199.232 684.232,554.983 					"/>
				</g>
				<g style="clip-path:url(#SVGID_00000097466207965612544430000007270967775556665509_);">
					<polygon style="fill:#232323;" points="681.619,554.983 727.82,199.232 729.127,199.232 682.925,554.983 					"/>
				</g>
				<g style="clip-path:url(#SVGID_00000097466207965612544430000007270967775556665509_);">
					<polygon style="fill:#232323;" points="680.313,554.983 726.514,199.232 727.82,199.232 681.619,554.983 					"/>
				</g>
				<g style="clip-path:url(#SVGID_00000097466207965612544430000007270967775556665509_);">
					<polygon style="fill:#222222;" points="679.006,554.983 725.207,199.232 726.514,199.232 680.313,554.983 					"/>
				</g>
				<g style="clip-path:url(#SVGID_00000097466207965612544430000007270967775556665509_);">
					<polygon style="fill:#212121;" points="677.7,554.983 723.901,199.232 725.207,199.232 679.006,554.983 					"/>
				</g>
				<g style="clip-path:url(#SVGID_00000097466207965612544430000007270967775556665509_);">
					<polygon style="fill:#202020;" points="676.393,554.983 722.594,199.232 723.901,199.232 677.7,554.983 					"/>
				</g>
				<g style="clip-path:url(#SVGID_00000097466207965612544430000007270967775556665509_);">
					<polygon style="fill:#202020;" points="675.087,554.983 721.288,199.232 722.594,199.232 676.393,554.983 					"/>
				</g>
				<g style="clip-path:url(#SVGID_00000097466207965612544430000007270967775556665509_);">
					<polygon style="fill:#1F1F1F;" points="673.78,554.983 719.981,199.232 721.288,199.232 675.087,554.983 					"/>
				</g>
				<g style="clip-path:url(#SVGID_00000097466207965612544430000007270967775556665509_);">
					<polygon style="fill:#1E1E1E;" points="672.474,554.983 718.675,199.232 719.981,199.232 673.78,554.983 					"/>
				</g>
				<g style="clip-path:url(#SVGID_00000097466207965612544430000007270967775556665509_);">
					<polygon style="fill:#1E1E1E;" points="671.167,554.983 717.369,199.232 718.675,199.232 672.474,554.983 					"/>
				</g>
				<g style="clip-path:url(#SVGID_00000097466207965612544430000007270967775556665509_);">
					<polygon style="fill:#1D1D1D;" points="669.861,554.983 716.062,199.232 717.369,199.232 671.167,554.983 					"/>
				</g>
				<g style="clip-path:url(#SVGID_00000097466207965612544430000007270967775556665509_);">
					<polygon style="fill:#1C1C1C;" points="668.555,554.983 714.756,199.232 716.062,199.232 669.861,554.983 					"/>
				</g>
				<g style="clip-path:url(#SVGID_00000097466207965612544430000007270967775556665509_);">
					<polygon style="fill:#1B1B1B;" points="667.248,554.983 713.449,199.232 714.756,199.232 668.555,554.983 					"/>
				</g>
				<g style="clip-path:url(#SVGID_00000097466207965612544430000007270967775556665509_);">
					<polygon style="fill:#1B1B1B;" points="665.942,554.983 712.143,199.232 713.449,199.232 667.248,554.983 					"/>
				</g>
				<g style="clip-path:url(#SVGID_00000097466207965612544430000007270967775556665509_);">
					<polygon style="fill:#1A1A1A;" points="664.635,554.983 710.836,199.232 712.143,199.232 665.942,554.983 					"/>
				</g>
				<g style="clip-path:url(#SVGID_00000097466207965612544430000007270967775556665509_);">
					<polygon style="fill:#191919;" points="663.329,554.983 709.53,199.232 710.836,199.232 664.635,554.983 					"/>
				</g>
				<g style="clip-path:url(#SVGID_00000097466207965612544430000007270967775556665509_);">
					<polygon style="fill:#191919;" points="662.022,554.983 708.223,199.232 709.53,199.232 663.329,554.983 					"/>
				</g>
				<g style="clip-path:url(#SVGID_00000097466207965612544430000007270967775556665509_);">
					<polygon style="fill:#181818;" points="660.716,554.983 706.917,199.232 708.223,199.232 662.022,554.983 					"/>
				</g>
				<g style="clip-path:url(#SVGID_00000097466207965612544430000007270967775556665509_);">
					<polygon style="fill:#171717;" points="659.409,554.983 705.61,199.232 706.917,199.232 660.716,554.983 					"/>
				</g>
				<g style="clip-path:url(#SVGID_00000097466207965612544430000007270967775556665509_);">
					<polygon style="fill:#171717;" points="658.103,554.983 704.304,199.232 705.61,199.232 659.409,554.983 					"/>
				</g>
				<g style="clip-path:url(#SVGID_00000097466207965612544430000007270967775556665509_);">
					<polygon style="fill:#161616;" points="656.797,554.983 702.998,199.232 704.304,199.232 658.103,554.983 					"/>
				</g>
				<g style="clip-path:url(#SVGID_00000097466207965612544430000007270967775556665509_);">
					<polygon style="fill:#151515;" points="655.49,554.983 701.691,199.232 702.998,199.232 656.797,554.983 					"/>
				</g>
				<g style="clip-path:url(#SVGID_00000097466207965612544430000007270967775556665509_);">
					<polygon style="fill:#151515;" points="654.184,554.983 700.385,199.232 701.691,199.232 655.49,554.983 					"/>
				</g>
				<g style="clip-path:url(#SVGID_00000097466207965612544430000007270967775556665509_);">
					<polygon style="fill:#141414;" points="652.877,554.983 699.078,199.232 700.385,199.232 654.184,554.983 					"/>
				</g>
				<g style="clip-path:url(#SVGID_00000097466207965612544430000007270967775556665509_);">
					<polygon style="fill:#141414;" points="651.571,554.983 697.772,199.232 699.078,199.232 652.877,554.983 					"/>
				</g>
				<g style="clip-path:url(#SVGID_00000097466207965612544430000007270967775556665509_);">
					<polygon style="fill:#131313;" points="650.264,554.983 696.466,199.232 697.772,199.232 651.571,554.983 					"/>
				</g>
				<g style="clip-path:url(#SVGID_00000097466207965612544430000007270967775556665509_);">
					<polygon style="fill:#121212;" points="648.958,554.983 695.159,199.232 696.466,199.232 650.264,554.983 					"/>
				</g>
				<g style="clip-path:url(#SVGID_00000097466207965612544430000007270967775556665509_);">
					<polygon style="fill:#121212;" points="647.651,554.983 693.853,199.232 695.159,199.232 648.958,554.983 					"/>
				</g>
				<g style="clip-path:url(#SVGID_00000097466207965612544430000007270967775556665509_);">
					<polygon style="fill:#111111;" points="646.345,554.983 692.546,199.232 693.853,199.232 647.651,554.983 					"/>
				</g>
				<g style="clip-path:url(#SVGID_00000097466207965612544430000007270967775556665509_);">
					<polygon style="fill:#111111;" points="645.039,554.983 691.24,199.232 692.546,199.232 646.345,554.983 					"/>
				</g>
				<g style="clip-path:url(#SVGID_00000097466207965612544430000007270967775556665509_);">
					<polygon style="fill:#101010;" points="643.732,554.983 689.933,199.232 691.24,199.232 645.039,554.983 					"/>
				</g>
				<g style="clip-path:url(#SVGID_00000097466207965612544430000007270967775556665509_);">
					<polygon style="fill:#101010;" points="642.426,554.983 688.627,199.232 689.933,199.232 643.732,554.983 					"/>
				</g>
				<g style="clip-path:url(#SVGID_00000097466207965612544430000007270967775556665509_);">
					<polygon style="fill:#0F0F0F;" points="641.119,554.983 687.32,199.232 688.627,199.232 642.426,554.983 					"/>
				</g>
				<g style="clip-path:url(#SVGID_00000097466207965612544430000007270967775556665509_);">
					<polygon style="fill:#0E0E0E;" points="639.813,554.983 686.014,199.232 687.32,199.232 641.119,554.983 					"/>
				</g>
				<g style="clip-path:url(#SVGID_00000097466207965612544430000007270967775556665509_);">
					<polygon style="fill:#0E0E0E;" points="638.506,554.983 684.708,199.232 686.014,199.232 639.813,554.983 					"/>
				</g>
				<g style="clip-path:url(#SVGID_00000097466207965612544430000007270967775556665509_);">
					<polygon style="fill:#0D0D0D;" points="637.2,554.983 683.401,199.232 684.708,199.232 638.506,554.983 					"/>
				</g>
				<g style="clip-path:url(#SVGID_00000097466207965612544430000007270967775556665509_);">
					<polygon style="fill:#0D0D0D;" points="635.893,554.983 682.095,199.232 683.401,199.232 637.2,554.983 					"/>
				</g>
				<g style="clip-path:url(#SVGID_00000097466207965612544430000007270967775556665509_);">
					<polygon style="fill:#0C0C0C;" points="634.587,554.983 680.788,199.232 682.095,199.232 635.893,554.983 					"/>
				</g>
				<g style="clip-path:url(#SVGID_00000097466207965612544430000007270967775556665509_);">
					<polygon style="fill:#0C0C0C;" points="633.281,554.983 679.482,199.232 680.788,199.232 634.587,554.983 					"/>
				</g>
				<g style="clip-path:url(#SVGID_00000097466207965612544430000007270967775556665509_);">
					<polygon style="fill:#0B0B0B;" points="631.974,554.983 678.175,199.232 679.482,199.232 633.281,554.983 					"/>
				</g>
				<g style="clip-path:url(#SVGID_00000097466207965612544430000007270967775556665509_);">
					<polygon style="fill:#0B0B0B;" points="630.668,554.983 676.869,199.232 678.175,199.232 631.974,554.983 					"/>
				</g>
				<g style="clip-path:url(#SVGID_00000097466207965612544430000007270967775556665509_);">
					<polygon style="fill:#0A0A0A;" points="629.361,554.983 675.562,199.232 676.869,199.232 630.668,554.983 					"/>
				</g>
				<g style="clip-path:url(#SVGID_00000097466207965612544430000007270967775556665509_);">
					<polygon style="fill:#0A0A0A;" points="628.055,554.983 674.256,199.232 675.562,199.232 629.361,554.983 					"/>
				</g>
				<g style="clip-path:url(#SVGID_00000097466207965612544430000007270967775556665509_);">
					<polygon style="fill:#090909;" points="626.748,554.983 672.95,199.232 674.256,199.232 628.055,554.983 					"/>
				</g>
				<g style="clip-path:url(#SVGID_00000097466207965612544430000007270967775556665509_);">
					<polygon style="fill:#090909;" points="625.442,554.983 671.643,199.232 672.95,199.232 626.748,554.983 					"/>
				</g>
				<g style="clip-path:url(#SVGID_00000097466207965612544430000007270967775556665509_);">
					<polygon style="fill:#090909;" points="624.135,554.983 670.337,199.232 671.643,199.232 625.442,554.983 					"/>
				</g>
				<g style="clip-path:url(#SVGID_00000097466207965612544430000007270967775556665509_);">
					<polygon style="fill:#080808;" points="622.829,554.983 669.03,199.232 670.337,199.232 624.135,554.983 					"/>
				</g>
				<g style="clip-path:url(#SVGID_00000097466207965612544430000007270967775556665509_);">
					<polygon style="fill:#080808;" points="621.523,554.983 667.724,199.232 669.03,199.232 622.829,554.983 					"/>
				</g>
				<g style="clip-path:url(#SVGID_00000097466207965612544430000007270967775556665509_);">
					<polygon style="fill:#070707;" points="620.216,554.983 666.417,199.232 667.724,199.232 621.523,554.983 					"/>
				</g>
				<g style="clip-path:url(#SVGID_00000097466207965612544430000007270967775556665509_);">
					<polygon style="fill:#070707;" points="618.91,554.983 665.111,199.232 666.417,199.232 620.216,554.983 					"/>
				</g>
				<g style="clip-path:url(#SVGID_00000097466207965612544430000007270967775556665509_);">
					<polygon style="fill:#060606;" points="617.603,554.983 663.804,199.232 665.111,199.232 618.91,554.983 					"/>
				</g>
				<g style="clip-path:url(#SVGID_00000097466207965612544430000007270967775556665509_);">
					<polygon style="fill:#060606;" points="616.297,554.983 662.498,199.232 663.804,199.232 617.603,554.983 					"/>
				</g>
				<g style="clip-path:url(#SVGID_00000097466207965612544430000007270967775556665509_);">
					<polygon style="fill:#060606;" points="614.99,554.983 661.192,199.232 662.498,199.232 616.297,554.983 					"/>
				</g>
				<g style="clip-path:url(#SVGID_00000097466207965612544430000007270967775556665509_);">
					<polygon style="fill:#050505;" points="613.684,554.983 659.885,199.232 661.192,199.232 614.99,554.983 					"/>
				</g>
				<g style="clip-path:url(#SVGID_00000097466207965612544430000007270967775556665509_);">
					<polygon style="fill:#050505;" points="612.378,554.983 658.579,199.232 659.885,199.232 613.684,554.983 					"/>
				</g>
				<g style="clip-path:url(#SVGID_00000097466207965612544430000007270967775556665509_);">
					<polygon style="fill:#050505;" points="611.071,554.983 657.272,199.232 658.579,199.232 612.378,554.983 					"/>
				</g>
				<g style="clip-path:url(#SVGID_00000097466207965612544430000007270967775556665509_);">
					<polygon style="fill:#040404;" points="609.765,554.983 655.966,199.232 657.272,199.232 611.071,554.983 					"/>
				</g>
				<g style="clip-path:url(#SVGID_00000097466207965612544430000007270967775556665509_);">
					<polygon style="fill:#040404;" points="608.458,554.983 654.659,199.232 655.966,199.232 609.765,554.983 					"/>
				</g>
				<g style="clip-path:url(#SVGID_00000097466207965612544430000007270967775556665509_);">
					<polygon style="fill:#040404;" points="607.152,554.983 653.353,199.232 654.659,199.232 608.458,554.983 					"/>
				</g>
				<g style="clip-path:url(#SVGID_00000097466207965612544430000007270967775556665509_);">
					<polygon style="fill:#030303;" points="605.845,554.983 652.047,199.232 653.353,199.232 607.152,554.983 					"/>
				</g>
				<g style="clip-path:url(#SVGID_00000097466207965612544430000007270967775556665509_);">
					<polygon style="fill:#030303;" points="604.539,554.983 650.74,199.232 652.047,199.232 605.845,554.983 					"/>
				</g>
				<g style="clip-path:url(#SVGID_00000097466207965612544430000007270967775556665509_);">
					<polygon style="fill:#030303;" points="603.232,554.983 649.434,199.232 650.74,199.232 604.539,554.983 					"/>
				</g>
				<g style="clip-path:url(#SVGID_00000097466207965612544430000007270967775556665509_);">
					<polygon style="fill:#020202;" points="601.926,554.983 648.127,199.232 649.434,199.232 603.232,554.983 					"/>
				</g>
				<g style="clip-path:url(#SVGID_00000097466207965612544430000007270967775556665509_);">
					<polygon style="fill:#020202;" points="600.62,554.983 646.821,199.232 648.127,199.232 601.926,554.983 					"/>
				</g>
				<g style="clip-path:url(#SVGID_00000097466207965612544430000007270967775556665509_);">
					<polygon style="fill:#020202;" points="599.313,554.983 645.514,199.232 646.821,199.232 600.62,554.983 					"/>
				</g>
				<g style="clip-path:url(#SVGID_00000097466207965612544430000007270967775556665509_);">
					<polygon style="fill:#020202;" points="598.007,554.983 644.208,199.232 645.514,199.232 599.313,554.983 					"/>
				</g>
				<g style="clip-path:url(#SVGID_00000097466207965612544430000007270967775556665509_);">
					<polygon style="fill:#010101;" points="596.7,554.983 642.901,199.232 644.208,199.232 598.007,554.983 					"/>
				</g>
				<g style="clip-path:url(#SVGID_00000097466207965612544430000007270967775556665509_);">
					<polygon style="fill:#010101;" points="595.394,554.983 641.595,199.232 642.901,199.232 596.7,554.983 					"/>
				</g>
				<g style="clip-path:url(#SVGID_00000097466207965612544430000007270967775556665509_);">
					<polygon style="fill:#010101;" points="594.087,554.983 640.288,199.232 641.595,199.232 595.394,554.983 					"/>
				</g>
				<g style="clip-path:url(#SVGID_00000097466207965612544430000007270967775556665509_);">
					<polygon style="fill:#010101;" points="592.781,554.983 638.982,199.232 640.288,199.232 594.087,554.983 					"/>
				</g>
				<g style="clip-path:url(#SVGID_00000097466207965612544430000007270967775556665509_);">
					<polygon style="fill:#010101;" points="591.474,554.983 637.676,199.232 638.982,199.232 592.781,554.983 					"/>
				</g>
				<g style="clip-path:url(#SVGID_00000097466207965612544430000007270967775556665509_);">
					<polygon points="590.168,554.983 636.369,199.232 637.676,199.232 591.474,554.983 					"/>
				</g>
				<g style="clip-path:url(#SVGID_00000097466207965612544430000007270967775556665509_);">
					<polygon points="588.862,554.983 635.063,199.232 636.369,199.232 590.168,554.983 					"/>
				</g>
				<g style="clip-path:url(#SVGID_00000097466207965612544430000007270967775556665509_);">
					<polygon points="587.555,554.983 633.756,199.232 635.063,199.232 588.862,554.983 					"/>
				</g>
				<g style="clip-path:url(#SVGID_00000097466207965612544430000007270967775556665509_);">
					<polygon points="586.249,554.983 632.45,199.232 633.756,199.232 587.555,554.983 					"/>
				</g>
				<g style="clip-path:url(#SVGID_00000097466207965612544430000007270967775556665509_);">
					<polygon points="584.942,554.983 631.143,199.232 632.45,199.232 586.249,554.983 					"/>
				</g>
				<g style="clip-path:url(#SVGID_00000097466207965612544430000007270967775556665509_);">
					<polygon points="583.636,554.983 629.837,199.232 631.143,199.232 584.942,554.983 					"/>
				</g>
				<g style="clip-path:url(#SVGID_00000097466207965612544430000007270967775556665509_);">
					<polygon points="629.837,199.232 583.636,554.983 325.312,554.983 325.312,199.232 					"/>
				</g>
			</g>
		</g>
		<g>
			<g>
				<g>
					<path style="fill:#FFFFFF;" d="M813.813,307.366c0.185-0.165,0.379-0.321,0.562-0.488c0.717-0.652,1.413-1.327,2.104-2.007
						c0.146-0.144,0.299-0.28,0.444-0.424c0.695-0.696,1.368-1.412,2.035-2.135c0.13-0.141,0.267-0.275,0.397-0.417
						c0.669-0.736,1.315-1.493,1.954-2.256c0.116-0.138,0.239-0.271,0.354-0.41c0.653-0.792,1.282-1.602,1.901-2.42
						c0.091-0.12,0.188-0.235,0.278-0.355c0.623-0.833,1.222-1.685,1.809-2.545c0.078-0.113,0.162-0.222,0.239-0.336
						c0.587-0.869,1.15-1.756,1.7-2.652c0.069-0.111,0.143-0.218,0.211-0.329c0.534-0.88,1.043-1.777,1.541-2.681
						c0.074-0.134,0.156-0.264,0.229-0.399c0.49-0.902,0.953-1.822,1.406-2.746c0.069-0.142,0.147-0.28,0.216-0.422
						c0.436-0.905,0.844-1.826,1.244-2.752c0.073-0.169,0.155-0.334,0.227-0.505c0.386-0.913,0.743-1.84,1.093-2.771
						c0.071-0.19,0.153-0.375,0.223-0.566c0.333-0.911,0.637-1.836,0.935-2.763c0.07-0.219,0.152-0.432,0.22-0.652
						c0.28-0.901,0.53-1.816,0.775-2.731c0.068-0.254,0.149-0.502,0.215-0.757c0.232-0.901,0.432-1.815,0.63-2.729
						c0.06-0.277,0.133-0.548,0.19-0.826c0.189-0.925,0.345-1.86,0.499-2.797c0.046-0.275,0.104-0.546,0.147-0.822
						c0.137-0.9,0.241-1.81,0.345-2.72c0.037-0.321,0.089-0.637,0.121-0.958c0.092-0.9,0.148-1.809,0.207-2.718
						c0.021-0.339,0.06-0.673,0.077-1.013c0.06-1.202,0.089-2.412,0.091-3.628c0-0.051,0.004-0.101,0.004-0.152
						c-0.001-15.223-4.63-29.364-12.556-41.094c-1.982-2.933-4.169-5.715-6.542-8.325c-2.844-3.128-5.967-5.995-9.307-8.594
						c-2.778-2.163-5.715-4.129-8.792-5.881c-5.662-3.224-11.785-5.727-18.258-7.362c-5.777-1.458-11.823-2.24-18.052-2.239
						c-0.066,0-0.135,0-0.2,0c-0.746,0.002-1.483,0.037-2.223,0.061c-0.473,0.015-0.95,0.014-1.42,0.039
						c-0.907,0.047-1.805,0.126-2.703,0.206c-0.33,0.029-0.665,0.043-0.994,0.077c-2.454,0.25-4.871,0.621-7.247,1.106
						c-0.293,0.06-0.58,0.137-0.871,0.2c-0.889,0.194-1.779,0.388-2.656,0.613c-0.385,0.099-0.761,0.217-1.144,0.322
						c-0.775,0.213-1.551,0.421-2.316,0.658c-0.42,0.13-0.831,0.28-1.248,0.418c-0.716,0.236-1.434,0.467-2.141,0.725
						c-0.438,0.16-0.866,0.339-1.3,0.507c-0.672,0.26-1.347,0.514-2.01,0.793c-0.447,0.188-0.884,0.395-1.327,0.592
						c-0.637,0.283-1.276,0.561-1.904,0.861c-0.447,0.214-0.883,0.446-1.325,0.669c-0.609,0.307-1.221,0.609-1.821,0.933
						c-0.444,0.239-0.877,0.496-1.315,0.744c-0.582,0.33-1.167,0.655-1.74,1c-0.441,0.266-0.87,0.548-1.304,0.823
						c-0.555,0.35-1.112,0.697-1.657,1.062c-0.434,0.291-0.857,0.597-1.284,0.897c-0.529,0.371-1.06,0.738-1.578,1.123
						c-0.426,0.315-0.839,0.645-1.257,0.969c-0.504,0.39-1.009,0.777-1.502,1.18c-0.415,0.339-0.817,0.691-1.224,1.039
						c-0.479,0.41-0.96,0.816-1.429,1.238c-0.402,0.362-0.793,0.737-1.187,1.107c-0.454,0.426-0.909,0.85-1.351,1.288
						c-0.391,0.387-0.77,0.785-1.152,1.18c-0.427,0.442-0.856,0.881-1.271,1.334c-0.376,0.409-0.74,0.829-1.106,1.246
						c-0.402,0.457-0.805,0.913-1.196,1.381c-0.36,0.431-0.709,0.872-1.06,1.311c-0.376,0.472-0.753,0.941-1.117,1.422
						c-0.343,0.453-0.674,0.914-1.008,1.375c-0.35,0.484-0.701,0.968-1.039,1.462c-0.326,0.474-0.639,0.956-0.953,1.438
						c-0.324,0.496-0.648,0.992-0.96,1.497c-0.305,0.494-0.599,0.995-0.893,1.497c-0.298,0.509-0.596,1.018-0.882,1.535
						c-0.284,0.513-0.556,1.031-0.828,1.551c-0.273,0.521-0.544,1.042-0.804,1.57c-0.261,0.531-0.512,1.067-0.761,1.605
						c-0.245,0.531-0.49,1.062-0.724,1.6c-0.238,0.548-0.465,1.102-0.69,1.657c-0.219,0.542-0.436,1.084-0.643,1.632
						c-0.213,0.564-0.415,1.133-0.615,1.703c-0.193,0.551-0.381,1.103-0.561,1.66c-0.187,0.58-0.364,1.163-0.537,1.75
						c-0.165,0.56-0.327,1.122-0.479,1.689c-0.16,0.593-0.31,1.19-0.455,1.789c-0.138,0.569-0.271,1.14-0.396,1.715
						c-0.132,0.606-0.254,1.216-0.371,1.828c-0.11,0.578-0.214,1.158-0.311,1.74c-0.102,0.618-0.196,1.239-0.283,1.862
						c-0.082,0.587-0.157,1.176-0.224,1.768c-0.072,0.628-0.136,1.258-0.193,1.891c-0.053,0.596-0.098,1.192-0.136,1.792
						c-0.041,0.638-0.074,1.277-0.099,1.918c-0.011,0.285-0.036,0.567-0.044,0.853l-7.33,0.001l-10.015,0l0,0l0,0l-228.95,0.018
						l-122.032,0.01l-14.07,8.775l0.019,243.771l0.003,31.678l214.411-0.017l186.548-0.015c0.047,0,0.094,0,0.14,0
						c0.463-0.001,0.921-0.028,1.382-0.041c0.457-0.013,0.916-0.015,1.37-0.041c0.482-0.026,0.957-0.077,1.435-0.116
						c0.45-0.038,0.904-0.064,1.351-0.113c0.475-0.052,0.943-0.127,1.414-0.192c0.444-0.061,0.891-0.112,1.331-0.185
						c0.464-0.076,0.92-0.174,1.38-0.263c0.44-0.085,0.885-0.159,1.322-0.255c0.456-0.101,0.905-0.223,1.357-0.335
						c0.432-0.107,0.868-0.204,1.296-0.323c0.454-0.125,0.9-0.272,1.349-0.409c0.418-0.128,0.84-0.246,1.254-0.383
						c0.446-0.149,0.882-0.318,1.323-0.479c0.409-0.149,0.822-0.288,1.226-0.446c0.435-0.171,0.86-0.362,1.29-0.544
						c0.4-0.17,0.804-0.33,1.2-0.509c0.426-0.193,0.841-0.405,1.261-0.609c0.389-0.189,0.783-0.368,1.168-0.567
						c0.425-0.219,0.839-0.458,1.258-0.689c0.368-0.203,0.742-0.396,1.105-0.608c0.419-0.244,0.826-0.506,1.238-0.761
						c0.353-0.219,0.711-0.427,1.059-0.654c0.404-0.263,0.795-0.544,1.193-0.817c0.344-0.237,0.694-0.465,1.033-0.71
						c0.393-0.284,0.774-0.587,1.159-0.881c0.33-0.252,0.666-0.495,0.991-0.755c0.383-0.307,0.753-0.631,1.129-0.948
						c0.314-0.265,0.634-0.522,0.943-0.794c0.371-0.328,0.728-0.672,1.091-1.01c0.3-0.279,0.606-0.549,0.9-0.835
						c0.356-0.346,0.697-0.708,1.044-1.065c0.287-0.293,0.58-0.578,0.861-0.878c0.339-0.363,0.663-0.741,0.993-1.114
						c0.274-0.309,0.555-0.61,0.823-0.924c0.331-0.389,0.646-0.794,0.966-1.192c0.251-0.313,0.511-0.618,0.757-0.936
						c0.316-0.409,0.616-0.834,0.921-1.253c0.235-0.322,0.479-0.636,0.707-0.964c0.297-0.425,0.577-0.863,0.863-1.297
						c0.221-0.335,0.451-0.663,0.666-1.003c0.282-0.446,0.546-0.906,0.817-1.361c0.203-0.341,0.414-0.674,0.61-1.019
						c0.265-0.467,0.511-0.946,0.764-1.421c0.184-0.346,0.378-0.685,0.556-1.035c0.244-0.481,0.469-0.975,0.702-1.464
						c0.169-0.356,0.348-0.706,0.509-1.066c0.216-0.48,0.413-0.971,0.617-1.459c0.16-0.381,0.33-0.756,0.482-1.141
						c0.2-0.505,0.379-1.022,0.566-1.535c0.137-0.377,0.285-0.748,0.415-1.128c0.192-0.562,0.363-1.135,0.54-1.705
						c0.105-0.341,0.222-0.677,0.322-1.02c0.163-0.561,0.304-1.133,0.452-1.701c0.094-0.363,0.2-0.719,0.287-1.084
						c0.144-0.602,0.266-1.212,0.393-1.82c0.071-0.34,0.153-0.674,0.219-1.016c0.117-0.612,0.21-1.233,0.309-1.852
						c0.055-0.347,0.123-0.689,0.173-1.038c0.094-0.663,0.164-1.335,0.238-2.006c0.034-0.31,0.08-0.617,0.11-0.928
						c0.078-0.819,0.13-1.647,0.176-2.476c0.009-0.169,0.028-0.334,0.035-0.503c0.047-1,0.071-2.007,0.071-3.019l-0.006-73.215
						l-0.006-69.939l0,0l0-6.867c0.064,0.001,0.136,0,0.2,0c0.607-0.002,1.206-0.034,1.81-0.05c0.624-0.017,1.25-0.02,1.869-0.052
						c0.639-0.034,1.271-0.096,1.906-0.145c0.607-0.047,1.218-0.081,1.82-0.143c0.639-0.066,1.269-0.16,1.903-0.242
						c0.59-0.076,1.185-0.139,1.771-0.229c0.638-0.098,1.266-0.225,1.899-0.339c0.572-0.103,1.148-0.194,1.715-0.31
						c0.647-0.134,1.284-0.295,1.924-0.445c0.541-0.126,1.087-0.24,1.624-0.378c0.658-0.17,1.303-0.367,1.954-0.555
						c0.509-0.147,1.024-0.28,1.528-0.438c0.673-0.21,1.334-0.448,1.999-0.677c0.469-0.161,0.944-0.309,1.409-0.479
						c0.681-0.251,1.349-0.528,2.021-0.797c0.437-0.175,0.879-0.337,1.311-0.52c0.688-0.291,1.361-0.61,2.039-0.922
						c0.402-0.185,0.812-0.358,1.21-0.55c0.706-0.341,1.397-0.708,2.09-1.071c0.356-0.186,0.719-0.36,1.071-0.552
						c0.719-0.391,1.422-0.808,2.126-1.222c0.314-0.185,0.636-0.357,0.947-0.547c0.726-0.441,1.434-0.908,2.142-1.373
						c0.276-0.182,0.561-0.352,0.835-0.537c0.721-0.488,1.425-1.001,2.128-1.513c0.248-0.181,0.504-0.351,0.75-0.535
						c0.719-0.539,1.42-1.101,2.119-1.665c0.216-0.174,0.44-0.339,0.653-0.516C812.427,308.596,813.121,307.983,813.813,307.366z"/>
				</g>
			</g>
			<g>
				<g>
					<g>
						<g>
							<polygon style="fill:#3A6594;" points="750.862,250.482 323.133,250.515 537.009,383.836 							"/>
						</g>
					</g>
					<g>
						<g>
							<path style="fill:#3A6594;" d="M309.063,259.29l0.022,275.448l400.959-0.031c30.327-0.002,54.91-26.28,54.907-58.695
								l-0.017-216.758L537.01,401.383L309.063,259.29z"/>
						</g>
					</g>
					<g>
						<g>
							<path style="fill:#31556F;" d="M674.116,250.488c-0.552,3.632-0.838,7.351-0.838,11.137c0,11.675,2.728,22.711,7.573,32.514
								l70.011-43.658L674.116,250.488z"/>
						</g>
					</g>
					<g>
						<g>
							<path style="fill:#31556F;" d="M746.785,335.121c6.266-0.001,12.348-0.787,18.155-2.264l-0.006-73.603l-76.169,47.497
								C702.216,324.017,723.203,335.123,746.785,335.121z"/>
						</g>
					</g>
				</g>
				<g>
					<g>
						
							<ellipse transform="matrix(0.9236 -0.3834 0.3834 0.9236 -38.3518 312.5456)" style="fill:#740C10;" cx="764.934" cy="252.489" rx="73.502" ry="73.502"/>
					</g>
				</g>
				<g>
					<g>
						<g>
							<polygon style="fill:#FFFFFF;" points="777.172,293.707 759.931,293.439 760.813,236.688 750.037,236.52 750.305,219.279 
								778.321,219.714 							"/>
						</g>
					</g>
				</g>
			</g>
			<g>
				<g>
					<path style="fill:#6D6E70;" d="M309.085,534.881h-0.143v-0.143l-0.022-275.527l14.171-8.838h0.041l368.189-0.029
						c0.548-19.161,8.405-37.096,22.133-50.518c13.785-13.477,31.994-20.928,51.273-20.98h0.2
						c40.607-0.003,73.647,33.031,73.65,73.638c0.002,19.637-7.634,38.109-21.499,52.011c-13.863,13.9-32.309,21.585-51.94,21.639
						h-0.058l0.012,149.878c0.001,15.688-5.707,30.444-16.073,41.55c-10.366,11.107-24.159,17.247-38.837,17.287h-0.141
						L309.085,534.881z M309.206,259.369l0.021,275.227l400.956-0.032c14.598-0.04,28.317-6.147,38.629-17.196
						c10.316-11.054,15.998-25.741,15.996-41.356l-0.012-150.163l0.342,0c19.555-0.054,37.929-7.708,51.738-21.555
						c13.812-13.849,21.417-32.249,21.416-51.81c-0.003-40.448-32.912-73.353-73.359-73.353c-0.003,0-0.004,0-0.006,0h-0.2
						c-19.204,0.052-37.343,7.474-51.074,20.899c-13.708,13.402-21.539,31.323-22.051,50.461l-0.004,0.139l-17.483,0.001
						l-350.942,0.028L309.206,259.369z"/>
				</g>
			</g>
		</g>
	</g>
	<g>
		<g>
			<g>
				<path style="fill:#E5D1BD;" d="M387.594,518.271c-0.297-0.128-0.601-0.232-0.914-0.305c-2.92-0.677-4.711,1.746-7.329,1.919
					c-1.168,0.077-4.084-2.145-4.589-0.167c-0.18,0.732-0.989,3.13-1.657,5.597c-1.22,1.669-2.37,3.404-3.738,4.935
					c-3.462,3.877-15.25,7.51-12.724,14.643c0.488,1.38,0.995,2.792,1.896,3.925c0.737,0.927,1.7,1.616,2.673,2.244
					c0.758,0.49,1.859,1.454,2.676,1.253c0.858-0.212,2.162-2.09,2.823-2.729c1.89-1.826,3.781-3.652,5.671-5.478
					c1.854-1.791,4.203-3.709,6.681-2.904c0.542,0.176,1.054,0.479,1.61,0.576c0.628,0.109,1.255-0.052,1.856-0.232
					c2.202-0.658,4.401-1.522,6.383-2.718c3.542-2.141,3.815-9.049,4.232-12.891c0.104-0.957,0.181-1.953-0.118-2.881
					c-0.486-1.51-1.838-2.507-3.101-3.386C389.177,519.152,388.413,518.624,387.594,518.271z"/>
			</g>
		</g>
		<g>
			<g>
				<path style="fill:#ADCAD8;" d="M318.455,584.864c3.281,0.161,6.609,0.317,9.775-0.452c2.524-0.613,4.868-1.797,7.158-3.035
					c14.198-7.679,27.162-17.785,38.273-29.837c-3.717-7.271-8.767-13.812-14.766-19.12c-11.103,7.319-22.794,13.668-34.927,18.965
					c-2.481,1.083-5.015,2.132-7.707,2.459c-3.879,0.471-7.827-0.58-11.671-1.623c-14.907-4.045-29.814-8.089-44.721-12.134
					c-8.994-2.44-18.328-4.898-27.289-3.154c-24.847,4.834-21.359,39.098,2.134,44.103
					C261.093,586.656,291.685,583.555,318.455,584.864z"/>
			</g>
		</g>
	</g>
	<g>
		<g>
			<g>
				<g>
					<path style="fill:#FFFFFF;" d="M809.617,556.739c-2.198-4.341-4.396-8.681-6.594-13.022
						c-5.652-11.162-11.304-22.324-16.957-33.487c-3.319-6.555-6.638-13.11-9.957-19.664l-0.062-0.123
						c-4.891-9.659-16.664-13.534-26.296-8.657l-17.79,9.008c-5.658-7.152-15.752-9.601-24.174-5.337l-18.056,9.143
						c-0.384,0.194-0.758,0.4-1.126,0.617c-5.748-6.612-15.454-8.765-23.598-4.642l-18.671,9.455l-26.212-51.765
						c-0.232-0.457-0.477-0.903-0.732-1.341c-0.076-0.132-0.157-0.259-0.236-0.389c-0.184-0.306-0.372-0.608-0.567-0.904
						c-0.044-0.066-0.083-0.136-0.127-0.202c-0.033-0.05-0.072-0.093-0.106-0.142c-7.383-10.829-21.84-14.796-33.809-8.735
						l-8.207,4.156c-13.031,6.599-18.232,22.541-11.615,35.608l57.488,113.529l-16.949-10.051c-0.44-0.262-0.886-0.506-1.335-0.739
						c-0.135-0.07-0.271-0.134-0.407-0.202c-0.319-0.159-0.64-0.313-0.962-0.458c-0.072-0.032-0.143-0.07-0.215-0.102
						c-0.054-0.024-0.11-0.04-0.165-0.063c-12.025-5.177-26.331-0.75-33.163,10.808l-4.685,7.925
						c-7.427,12.564-3.251,28.861,9.309,36.328l103.165,67.13c1.311,0.782,2.373,1.921,3.063,3.284l12.797,25.273
						c4.891,9.658,16.664,13.534,26.296,8.657l92.914-47.049c5.494-2.782,9.392-8.074,10.426-14.156
						c0,0-7.884-101.636-7.888-101.693c-0.357-5.513-0.38-9.348-2.663-13.791C811.032,559.549,810.328,558.142,809.617,556.739z"/>
				</g>
			</g>
			<g>
				<g>
					<path style="fill:#000100;" d="M809.617,556.739c-2.198-4.341-4.396-8.681-6.594-13.022
						c-5.652-11.162-11.304-22.324-16.957-33.487c-3.319-6.555-6.638-13.11-9.957-19.664l-0.062-0.123
						c-4.891-9.659-16.664-13.534-26.296-8.657l-17.79,9.008c-5.658-7.152-15.752-9.601-24.174-5.337l-18.056,9.143
						c-0.384,0.194-0.758,0.4-1.126,0.617c-5.748-6.612-15.454-8.765-23.598-4.642l-18.671,9.455l-26.212-51.765
						c-0.232-0.457-0.477-0.903-0.732-1.341c-0.076-0.132-0.157-0.259-0.236-0.389c-0.184-0.306-0.372-0.608-0.567-0.904
						c-0.044-0.066-0.083-0.136-0.127-0.202c-0.033-0.05-0.072-0.093-0.106-0.142c-7.383-10.829-21.84-14.796-33.809-8.735
						l-8.207,4.156c-13.031,6.599-18.232,22.541-11.615,35.608l57.488,113.529l-16.949-10.051c-0.44-0.262-0.886-0.506-1.335-0.739
						c-0.135-0.07-0.271-0.134-0.407-0.202c-0.319-0.159-0.64-0.313-0.962-0.458c-0.072-0.032-0.143-0.07-0.215-0.102
						c-0.054-0.024-0.11-0.04-0.165-0.063c-12.025-5.177-26.331-0.75-33.163,10.808l-4.685,7.925
						c-7.427,12.564-3.251,28.861,9.309,36.328l103.165,67.13c1.311,0.782,2.373,1.921,3.063,3.284l12.797,25.273
						c4.891,9.658,16.664,13.534,26.296,8.657l92.914-47.049c5.494-2.782,9.392-8.074,10.426-14.156
						c0,0-7.884-101.636-7.888-101.693c-0.357-5.513-0.38-9.348-2.663-13.791C811.032,559.549,810.328,558.142,809.617,556.739z
						 M797.008,567.475c1.522,3.005,1.659,4.824,2.075,11.221l7.34,94.992c-0.182,1.073-0.871,2.007-1.84,2.498l-92.914,47.049
						c-1.7,0.861-3.777,0.177-4.64-1.528l-15.14-29.9c-0.825-1.63-2.099-2.99-3.67-3.919l-106.379-68.465
						c-4.915-2.922-6.549-9.299-3.643-14.215l4.685-7.925c2.706-4.578,8.41-6.298,13.151-4.154c0.102,0.047,0.204,0.096,0.306,0.146
						c0.07,0.034,0.14,0.068,0.21,0.104c0.175,0.091,0.348,0.186,0.518,0.287l39.354,23.533c3.57,2.409,6.066,3.033,9.202,1.446
						c3.731-1.889,6.197-5.97,3.914-10.478l-70.447-139.122c-2.589-5.113-0.554-11.352,4.545-13.934l8.207-4.156
						c4.741-2.401,10.481-0.781,13.336,3.575c0.062,0.094,0.121,0.19,0.18,0.287c0.041,0.067,0.082,0.132,0.121,0.2
						c0.099,0.171,0.194,0.344,0.284,0.52l30.9,61.023l23.546,46.5c1.942,3.835,6.524,5.723,10.467,4.038
						c4.32-1.846,6.115-6.928,4.021-11.064l-21.066-41.603l18.671-9.455c1.7-0.861,3.777-0.177,4.64,1.528l3.284,6.486
						l18.659,36.848c1.942,3.835,6.524,5.723,10.466,4.038c4.32-1.846,6.115-6.928,4.021-11.064l-16.929-33.433
						c0.172-0.136,0.36-0.266,0.582-0.378l18.056-9.143c1.7-0.861,3.777-0.177,4.64,1.528l2.634,5.202l15.676,30.958
						c1.942,3.835,6.524,5.723,10.467,4.038c4.32-1.846,6.115-6.928,4.021-11.064l-12.914-25.503l17.44-8.831
						c1.7-0.861,3.777-0.177,4.64,1.528L797.008,567.475z"/>
				</g>
			</g>
		</g>
	</g>
	<g>
		<g>
			<g>
				<path style="fill:#EACDB0;" d="M739.282,667.064c3.068-3.411,6.136-6.823,9.205-10.234c0.95-1.056,3.038-4.52,4.695-3.201
					c0.804,0.64,3.697,2.561,6.477,4.669c2.789,0.806,5.548,1.739,8.4,2.277c7.22,1.364,24.075-4.263,26.852,5.436
					c0.537,1.876,1.08,3.801,0.93,5.747c-0.122,1.591-0.703,3.108-1.344,4.569c-0.5,1.138-1.022,3.064-2.149,3.508
					c-1.184,0.466-4.241-0.496-5.538-0.648c-3.707-0.433-7.414-0.865-11.121-1.298c-3.636-0.424-7.959-0.584-10.235,2.282
					c-0.498,0.627-0.858,1.366-1.437,1.92c-0.653,0.625-1.524,0.958-2.379,1.251c-3.131,1.074-6.427,1.923-9.729,2.241
					c-3.014,0.29-4.348-1.689-6.486-3.516c-2.5-2.135-5.692-2.271-8.205-4.323c-1.418-1.157-2.437-2.978-2.136-4.783
					c0.244-1.461,1.276-2.646,2.266-3.747C737.992,668.498,738.637,667.781,739.282,667.064z"/>
			</g>
		</g>
		<g>
			<g>
				<path style="fill:#A16652;" d="M873.337,679.69c-6.942,4.403-14.566,7.002-23.862,8.31c-22.968,3.232-46.44,2.86-69.295-1.098
					c-1.483-10.81-0.8-21.913,1.997-32.46c19.023-1.116,37.957-3.75,56.563-7.868c9.116-2.018,16.859-5.336,20.988-14.273
					c9.195-19.897,16.895-40.485,23.013-61.533c1.353-4.654,2.677-9.433,5.47-13.393c5.123-7.261,14.755-10.581,23.557-9.357
					c8.802,1.224,16.7,6.483,22.443,13.265c4.116,4.861,7.335,10.783,7.612,17.146c0.287,6.582-2.556,12.861-5.524,18.742
					c-13.24,26.237-30.284,50.552-50.432,71.946C881.796,673.44,877.701,676.922,873.337,679.69z"/>
			</g>
		</g>
	</g>
</g>
</svg>
